<?xml version="1.0" encoding="utf-8"?>
<!-- Generator: Adobe Illustrator 16.0.0, SVG Export Plug-In . SVG Version: 6.00 Build 0)  -->
<!DOCTYPE svg PUBLIC "-//W3C//DTD SVG 1.1//EN" "http://www.w3.org/Graphics/SVG/1.1/DTD/svg11.dtd">
<svg version="1.1" id="Camada_1" xmlns="http://www.w3.org/2000/svg" xmlns:xlink="http://www.w3.org/1999/xlink" x="0px" y="0px"
	 width="585.432px" height="445.039px" viewBox="0 0 585.432 445.039" enable-background="new 0 0 585.432 445.039"
	 xml:space="preserve">
<g>
	<g>
		<defs>
			<rect id="SVGID_53_" x="-35.826" y="-419.927" width="771.559" height="311.11"/>
		</defs>
		<clipPath id="SVGID_2_">
			<use xlink:href="#SVGID_53_"  overflow="visible"/>
		</clipPath>
		<g opacity="0.3" clip-path="url(#SVGID_2_)">
			<g>
				<g>
					<g>
						<defs>
							<path id="SVGID_55_" d="M10.17-40.672c0-26.854,21.768-48.623,48.619-48.623s48.621,21.77,48.621,48.623
								c0,26.852-21.77,48.621-48.621,48.621S10.17-13.82,10.17-40.672 M-20.447-40.453c0,44.656,34.583,80.855,79.236,80.855
								c44.655,0,79.239-36.199,79.239-80.855c0-55.842-72.96-140.385-72.96-140.385c-3.454-4-9.104-4-12.557,0
								C52.512-180.838-20.447-96.295-20.447-40.453"/>
						</defs>
						<clipPath id="SVGID_3_">
							<use xlink:href="#SVGID_55_"  overflow="visible"/>
						</clipPath>
						
							<linearGradient id="SVGID_5_" gradientUnits="userSpaceOnUse" x1="48.376" y1="-828.0527" x2="49.3206" y2="-828.0527" gradientTransform="matrix(0 237.4541 -237.4541 0 -196565.6875 -11670.9756)">
							<stop  offset="0" style="stop-color:#D78A30"/>
							<stop  offset="0.1426" style="stop-color:#D99030"/>
							<stop  offset="0.3753" style="stop-color:#DEA030"/>
							<stop  offset="0.6688" style="stop-color:#E7BD30"/>
							<stop  offset="1" style="stop-color:#F3E02A"/>
						</linearGradient>
						<rect x="-20.447" y="-184.838" clip-path="url(#SVGID_3_)" fill="url(#SVGID_5_)" width="158.476" height="225.24"/>
					</g>
					<g>
						<defs>
							<path id="SVGID_58_" d="M13.213-41.768c0-25.172,20.406-45.578,45.576-45.578c25.172,0,45.578,20.406,45.578,45.578
								c0,25.17-20.406,45.578-45.578,45.578C33.62,3.811,13.213-16.598,13.213-41.768 M-15.489-41.563
								c0,41.861,32.419,75.797,74.278,75.797c41.861,0,74.281-33.936,74.281-75.797c0-52.348-68.109-131.268-68.109-131.268
								c-3.395-3.934-8.947-3.934-12.34,0C52.622-172.83-15.489-93.91-15.489-41.563"/>
						</defs>
						<clipPath id="SVGID_6_">
							<use xlink:href="#SVGID_58_"  overflow="visible"/>
						</clipPath>
						
							<linearGradient id="SVGID_8_" gradientUnits="userSpaceOnUse" x1="48.1074" y1="-827.9834" x2="49.0515" y2="-827.9834" gradientTransform="matrix(0 222.3887 -222.3887 0 -184075.4063 -10874.2041)">
							<stop  offset="0" style="stop-color:#E6B32F"/>
							<stop  offset="0.15" style="stop-color:#DE9E30"/>
							<stop  offset="1" style="stop-color:#EFCB2C"/>
						</linearGradient>
						<rect x="-15.489" y="-176.764" clip-path="url(#SVGID_6_)" fill="url(#SVGID_8_)" width="148.56" height="210.998"/>
					</g>
					<g opacity="0.75">
						<g>
							<defs>
								<rect id="SVGID_61_" x="-20.664" y="-39.053" width="158.908" height="79.455"/>
							</defs>
							<clipPath id="SVGID_10_">
								<use xlink:href="#SVGID_61_"  overflow="visible"/>
							</clipPath>
							<g clip-path="url(#SVGID_10_)">
								<defs>
									<path id="SVGID_63_" d="M58.79,9.328c24.752,0,45.148-18.592,48.022-42.57c9.001-1.576,19.285-3.51,31.433-5.811
										c0,43.881-35.574,79.455-79.455,79.455c-43.879,0-79.453-35.574-79.453-79.455c12.139,2.219,22.416,4.107,31.416,5.666
										C13.558-9.338,33.989,9.328,58.79,9.328"/>
								</defs>
								<clipPath id="SVGID_11_">
									<use xlink:href="#SVGID_63_"  overflow="visible"/>
								</clipPath>
								
									<linearGradient id="SVGID_13_" gradientUnits="userSpaceOnUse" x1="41.0991" y1="-826.1836" x2="42.0435" y2="-826.1836" gradientTransform="matrix(0 84.1367 -84.1367 0 -69453.5781 -3496.9971)">
									<stop  offset="0" style="stop-color:#221D1F"/>
									<stop  offset="0.0888" style="stop-color:#42382A"/>
									<stop  offset="0.1975" style="stop-color:#635333"/>
									<stop  offset="0.3113" style="stop-color:#887038"/>
									<stop  offset="0.429" style="stop-color:#AC8D39"/>
									<stop  offset="0.5516" style="stop-color:#CAA837"/>
									<stop  offset="0.6815" style="stop-color:#E0BD32"/>
									<stop  offset="0.8234" style="stop-color:#ECC82E"/>
									<stop  offset="1" style="stop-color:#EFCB2C"/>
								</linearGradient>
								<rect x="-20.664" y="-39.053" clip-path="url(#SVGID_11_)" fill="url(#SVGID_13_)" width="158.908" height="79.455"/>
							</g>
						</g>
					</g>
					<g>
						<defs>
							<path id="SVGID_66_" d="M13.213-41.768c0-25.172,20.406-45.578,45.576-45.578c25.172,0,45.578,20.406,45.578,45.578
								c0,25.17-20.406,45.578-45.578,45.578C33.62,3.811,13.213-16.598,13.213-41.768 M6.647-41.768
								c0,28.797,23.346,52.143,52.143,52.143s52.144-23.346,52.144-52.143c0-28.799-23.347-52.143-52.144-52.143
								S6.647-70.566,6.647-41.768"/>
						</defs>
						<clipPath id="SVGID_14_">
							<use xlink:href="#SVGID_66_"  overflow="visible"/>
						</clipPath>
						
							<linearGradient id="SVGID_16_" gradientUnits="userSpaceOnUse" x1="43.7988" y1="-826.873" x2="44.7432" y2="-826.873" gradientTransform="matrix(0 110.4297 -110.4297 0 -91252.5313 -4930.5762)">
							<stop  offset="0" style="stop-color:#EFCB2C"/>
							<stop  offset="1" style="stop-color:#DE9E30"/>
						</linearGradient>
						<rect x="6.647" y="-93.91" clip-path="url(#SVGID_14_)" fill="url(#SVGID_16_)" width="104.286" height="104.285"/>
					</g>
					<g>
						<defs>
							<path id="SVGID_69_" d="M13.213-41.768c0-25.172,20.406-45.578,45.576-45.578c25.172,0,45.578,20.406,45.578,45.578
								c0,25.17-20.406,45.578-45.578,45.578C33.62,3.811,13.213-16.598,13.213-41.768"/>
						</defs>
						<clipPath id="SVGID_17_">
							<use xlink:href="#SVGID_69_"  overflow="visible"/>
						</clipPath>
						
							<radialGradient id="SVGID_19_" cx="49.355" cy="-840.5503" r="0.9441" gradientTransform="matrix(82.3975 0 0 82.3975 -4006.6802 69240.8203)" gradientUnits="userSpaceOnUse">
							<stop  offset="0" style="stop-color:#E9E338"/>
							<stop  offset="1" style="stop-color:#D17731"/>
						</radialGradient>
						<rect x="13.213" y="-87.346" clip-path="url(#SVGID_17_)" fill="url(#SVGID_19_)" width="91.154" height="91.156"/>
					</g>
				</g>
			</g>
			<g>
				<g>
					<g>
						<defs>
							<path id="SVGID_72_" d="M154.006-34.072c0-28.602,23.188-51.791,51.791-51.791s51.796,23.189,51.796,51.791
								c0,28.605-23.192,51.795-51.796,51.795S154.006-5.467,154.006-34.072 M121.389-33.834c0,47.563,36.842,86.131,84.408,86.131
								s84.41-38.568,84.41-86.131c0-59.49-77.722-149.549-77.722-149.549c-3.679-4.262-9.696-4.262-13.375,0
								C199.111-183.383,121.389-93.324,121.389-33.834"/>
						</defs>
						<clipPath id="SVGID_20_">
							<use xlink:href="#SVGID_72_"  overflow="visible"/>
						</clipPath>
						
							<linearGradient id="SVGID_22_" gradientUnits="userSpaceOnUse" x1="45.9165" y1="-828.7744" x2="47.8937" y2="-828.7744" gradientTransform="matrix(0 120.8271 -120.8271 0 -99932.6016 -5734.5781)">
							<stop  offset="0" style="stop-color:#5CA03E"/>
							<stop  offset="0.1398" style="stop-color:#65A43D"/>
							<stop  offset="0.3679" style="stop-color:#7BAC3B"/>
							<stop  offset="0.6557" style="stop-color:#9AB937"/>
							<stop  offset="0.9892" style="stop-color:#C4CF30"/>
							<stop  offset="1" style="stop-color:#C5D030"/>
						</linearGradient>
						<rect x="121.389" y="-187.645" clip-path="url(#SVGID_20_)" fill="url(#SVGID_22_)" width="168.818" height="239.941"/>
					</g>
					<g>
						<defs>
							<path id="SVGID_75_" d="M157.247-35.236c0-26.814,21.736-48.555,48.551-48.555s48.553,21.74,48.553,48.555
								c0,26.811-21.738,48.551-48.553,48.551S157.247-8.426,157.247-35.236 M126.669-35.021c0,44.592,34.536,80.742,79.128,80.742
								c44.593,0,79.131-36.15,79.131-80.742c0-55.762-72.559-139.836-72.559-139.836c-3.615-4.186-9.527-4.186-13.144,0
								C199.226-174.857,126.669-90.783,126.669-35.021"/>
						</defs>
						<clipPath id="SVGID_23_">
							<use xlink:href="#SVGID_75_"  overflow="visible"/>
						</clipPath>
						
							<linearGradient id="SVGID_25_" gradientUnits="userSpaceOnUse" x1="45.5205" y1="-828.7544" x2="47.4981" y2="-828.7544" gradientTransform="matrix(0 113.1609 -113.1609 0 -93576.7891 -5329.1465)">
							<stop  offset="0" style="stop-color:#69A53C"/>
							<stop  offset="0.15" style="stop-color:#60A23D"/>
							<stop  offset="1" style="stop-color:#9DBA33"/>
						</linearGradient>
						<rect x="126.669" y="-179.043" clip-path="url(#SVGID_23_)" fill="url(#SVGID_25_)" width="158.259" height="224.764"/>
					</g>
					<g opacity="0.75">
						<g>
							<defs>
								<rect id="SVGID_78_" x="121.158" y="-32.346" width="169.278" height="84.643"/>
							</defs>
							<clipPath id="SVGID_27_">
								<use xlink:href="#SVGID_78_"  overflow="visible"/>
							</clipPath>
							<g clip-path="url(#SVGID_27_)">
								<defs>
									<path id="SVGID_80_" d="M205.797,19.193c26.367,0,48.094-19.807,51.157-45.35c9.586-1.682,20.542-3.74,33.481-6.189
										c0,46.746-37.895,84.643-84.639,84.643c-46.742,0-84.64-37.896-84.64-84.643c12.931,2.363,23.88,4.375,33.467,6.035
										C157.616-0.693,179.378,19.193,205.797,19.193"/>
								</defs>
								<clipPath id="SVGID_28_">
									<use xlink:href="#SVGID_80_"  overflow="visible"/>
								</clipPath>
								
									<linearGradient id="SVGID_30_" gradientUnits="userSpaceOnUse" x1="36.0264" y1="-828.2314" x2="38.0034" y2="-828.2314" gradientTransform="matrix(0 42.8125 -42.8125 0 -35252.8398 -1574.749)">
									<stop  offset="0" style="stop-color:#3C001A"/>
									<stop  offset="0.0612" style="stop-color:#472D22"/>
									<stop  offset="0.1586" style="stop-color:#574A2B"/>
									<stop  offset="0.2608" style="stop-color:#666431"/>
									<stop  offset="0.3656" style="stop-color:#767E35"/>
									<stop  offset="0.4741" style="stop-color:#849437"/>
									<stop  offset="0.5871" style="stop-color:#90A736"/>
									<stop  offset="0.7067" style="stop-color:#98B335"/>
									<stop  offset="0.8374" style="stop-color:#9CB933"/>
									<stop  offset="1" style="stop-color:#9DBA33"/>
								</linearGradient>
								<rect x="121.157" y="-32.346" clip-path="url(#SVGID_28_)" fill="url(#SVGID_30_)" width="169.279" height="84.643"/>
							</g>
						</g>
					</g>
					<g>
						<defs>
							<path id="SVGID_83_" d="M157.247-35.236c0-26.814,21.736-48.555,48.551-48.555s48.553,21.74,48.553,48.555
								c0,26.811-21.738,48.551-48.553,48.551S157.247-8.426,157.247-35.236 M150.252-35.236c0,30.672,24.869,55.541,55.545,55.541
								c30.677,0,55.545-24.869,55.545-55.541c0-30.676-24.868-55.547-55.545-55.547C175.122-90.783,150.252-65.912,150.252-35.236"
								/>
						</defs>
						<clipPath id="SVGID_31_">
							<use xlink:href="#SVGID_83_"  overflow="visible"/>
						</clipPath>
						
							<linearGradient id="SVGID_33_" gradientUnits="userSpaceOnUse" x1="39.3911" y1="-828.4326" x2="41.3682" y2="-828.4326" gradientTransform="matrix(0 56.1904 -56.1904 0 -46344.1641 -2304.1755)">
							<stop  offset="0" style="stop-color:#9DBA33"/>
							<stop  offset="1" style="stop-color:#60A23D"/>
						</linearGradient>
						<rect x="150.252" y="-90.783" clip-path="url(#SVGID_31_)" fill="url(#SVGID_33_)" width="111.09" height="111.088"/>
					</g>
					<g>
						<defs>
							<path id="SVGID_86_" d="M157.247-35.236c0-26.814,21.736-48.555,48.551-48.555s48.553,21.74,48.553,48.555
								c0,26.811-21.738,48.551-48.553,48.551S157.247-8.426,157.247-35.236"/>
						</defs>
						<clipPath id="SVGID_34_">
							<use xlink:href="#SVGID_86_"  overflow="visible"/>
						</clipPath>
						
							<radialGradient id="SVGID_36_" cx="51.4727" cy="-845.4404" r="1.9781" gradientTransform="matrix(41.9278 0 0 41.9278 -1951.0417 35437.0625)" gradientUnits="userSpaceOnUse">
							<stop  offset="0" style="stop-color:#E4E02B"/>
							<stop  offset="1" style="stop-color:#4B9C40"/>
						</radialGradient>
						<rect x="157.247" y="-83.791" clip-path="url(#SVGID_34_)" fill="url(#SVGID_36_)" width="97.104" height="97.105"/>
					</g>
				</g>
				<path opacity="0.3" fill="#336535" d="M171.405-7.951l19.295-0.51c0,0,0.592,0.588,0.711,0.533c0,0-0.148,0.211-0.512,0.117
					c0,0-0.245-0.113-0.152,0.158c0,0,0.182,0.34,0.236,0.422c0.053,0.086-0.18,0.402-0.041,0.484c0,0-0.074,0.414,0.031,0.447
					c0,0,0.283,0.316,0.309,0.627c0,0,0.123,0.152,0.191,0.133c0,0-0.017,0.705,0.027,1.047c0,0,0.229,0.184,0.252,0.371
					c0,0-0.473,1.012-0.47,1.131c0,0-0.28,0.471,0.137,0.615c0,0,0.331,0.146,0.392,0.471c0,0,0.359,0.627,0.496,0.588
					c0,0,0.049,1.168,0.508,1.672c0,0,0.818-0.934,1.037-1.764l0.321-0.215c0,0,0.247-1.676,0.297-1.813
					c0.046-0.139,0.467-0.516,0.53-0.705c0.063-0.188,0.076-0.377,0.143-0.432c0.066-0.051,0.203-0.107,0.203-0.107
					s0.375-0.113,0.157-0.588c0,0-0.089-0.104-0.11-0.256c0,0,0.008-0.326-0.027-0.395l-0.078-0.342l0.166-0.227l0.071-0.313
					c0,0,0.126-0.141-0.009-0.258l0.055-0.189c0,0,0.092-0.467,0.211-0.486l-0.014-0.533l0.551,0.02
					c0.067-0.055,0.479-0.082,0.51-0.221c0.031-0.137-0.012-0.445-0.012-0.445s0.342-0.061,0.494-0.15s0.497-0.082,0.615-0.119
					c0.119-0.039,0.912-0.645,1.105-1.113c0,0-0.151-0.494,0.15-0.83c0,0,1.049,0.041,1.164-0.15s0.184-0.227,0.335-0.953
					c0,0,0.315,0.18,0.452,0.178c0.139-0.004,38.883-3.9,38.883-3.9l0.174-0.006c0,0-0.245-0.264-0.262-0.379
					c0,0-0.102-0.217-0.131-0.379c-0.031-0.158-0.061-0.291-0.146-0.375c-0.086-0.082-0.236-0.148-0.33-0.287
					s-0.213-0.232-0.222-0.324c-0.009-0.09-0.048-0.127,0.026-0.232c0,0-0.039-0.469-0.119-0.627
					c-0.082-0.16-0.167-0.453-0.175-0.486c-0.007-0.031-0.211-0.162-0.265-0.27c-0.055-0.107-0.012-0.25-0.076-0.391
					c-0.061-0.141-0.184-0.139-0.198-0.207c-0.015-0.07-0.074-0.373-0.074-0.373s-0.013-0.252-0.059-0.262
					c-0.044-0.012-0.476-0.201-0.478-0.291c0,0,0.08-0.123,0.129-0.236c0.049-0.111,0.182-0.166,0.107-0.311
					c-0.074-0.148-0.318-0.424-0.336-0.508c0,0,0.104-0.236,0.135-0.256c0.033-0.021-0.049-0.178-0.082-0.197
					c-0.032-0.018-0.084-0.023-0.105-0.111c-0.022-0.09-0.001-0.041,0.015-0.189c0.015-0.148,0.091-0.447,0.091-0.447
					s0.004-0.092-0.098-0.273c-0.102-0.184-0.246-0.342-0.246-0.342l0.002-0.395c0,0,0.068-0.316-0.393-0.898
					c0,0-0.149-0.336-0.129-0.545c0.02-0.207-0.045-0.699,0.113-0.803l0.326-0.084c0,0-0.019-0.465-0.072-0.545
					c-0.054-0.084-0.224-0.17-0.237-0.197c-0.013-0.021-0.06-0.346,0.021-0.463s0.098-0.441,0.098-0.441l0.306-0.15l-0.128-0.234
					c0,0-0.075-0.1,0.008-0.135c0.084-0.035-0.018-0.172-0.076-0.191c0,0-0.115-0.01-0.125-0.107
					c-0.008-0.096-0.02-0.262,0.018-0.314s0.074-0.105,0.081-0.133c0.005-0.025-0.161-0.711-0.074-0.848
					c0.087-0.139,0.198-0.025,0.134-0.307c-0.066-0.281,0.055-0.408,0.055-0.408s0.109-0.459,0.086-0.563
					c-0.021-0.102,0.031-0.059-0.131-0.326c-0.161-0.266-0.258-0.496-0.293-0.617s-0.023-0.404-0.023-0.404s0.213-0.006,0.256-0.072
					c0.043-0.064,0.045-0.529,0.072-0.686c0.029-0.154-0.047-0.309,0.114-0.311c0.161-0.004,0.126-0.088,0.253-0.148
					c0.128-0.063,0.316-0.01,0.316-0.01s0.291,0.018,0.027-0.395c-0.262-0.41-0.5-0.637-0.5-0.637s0.199-0.049,0.127-0.139
					c-0.074-0.088-0.206-0.189-0.209-0.285c-0.002-0.096,0.078-0.479,0.02-0.775c-0.061-0.295-0.093-0.564-0.273-0.842
					c-0.183-0.279-0.172-0.396-0.148-0.467c0.024-0.072-0.124-0.035-0.199-0.227c-0.076-0.191-0.372-0.152-0.428-0.324
					c-0.057-0.172-0.226-0.973-0.305-1.035c-0.08-0.064-0.331-0.104-0.331-0.104s-0.052-0.012,0.013-0.219
					c0.065-0.207,0.101-0.584,0.101-0.584s-0.076-0.434-0.146-0.6c-0.066-0.166-0.01-0.414,0.052-0.506s0.138-0.359,0.138-0.359
					s-0.273-0.396-0.518-0.086c0,0-0.064-0.09-0.06-0.336c0.007-0.244-0.061-0.313-0.134-0.402
					c-0.072-0.088-0.227-0.547-0.229-0.605s-0.084-0.508-0.078-0.539c0.006-0.033,0.143-0.48,0.146-0.545
					c0.005-0.066-0.25-0.432-0.25-0.432s0.005-0.084,0.015-0.176c0.012-0.092-0.112-0.385-0.161-0.484
					c-0.047-0.102-0.072-0.096-0.16-0.252c-0.09-0.16-0.098-0.232-0.125-0.322c-0.029-0.09-0.024-0.16-0.039-0.232
					c-0.016-0.068-0.105-0.344-0.109-0.453c-0.002-0.109-0.979-0.723-0.979-0.723s-0.234-0.082-0.291,0.221
					c0,0-0.152,0.314-0.418,0.025c0,0-0.514-0.213-0.635-0.344c-0.119-0.133-0.285,0.154-0.684-0.311l-0.38-0.402
					c0,0-0.292-0.574-0.331-0.805c-0.037-0.232,0.217-0.135,0.013-0.523c-0.202-0.387-0.136-0.504-0.21-0.633
					c-0.074-0.127-0.02-0.455-0.111-0.338c-0.094,0.119-0.168,0.258-0.234,0.188s-0.1-0.088-0.027-0.295
					c0.072-0.209,0.269-0.066,0.1-0.359c-0.168-0.291-0.52-0.883-0.611-0.994c-0.094-0.115-0.252-0.219-0.294-0.115
					s-0.259,0.244-0.282,0.072c-0.022-0.174-0.184-0.369-0.233-0.316c-0.051,0.053-1.535-0.035-1.535-0.035
					s-0.456-0.904-0.509-0.975c-0.055-0.07,0.109-0.197-0.297-0.256c-0.408-0.061-0.594-0.197-0.625-0.242
					c-0.033-0.045-0.326-0.121-0.347-0.172s-0.021-0.27-0.028-0.359c-0.01-0.09-0.135-0.201-0.135-0.201l-0.755-0.252
					c0,0-0.265-0.277-0.061-0.578c0.205-0.303,0.903-0.475-0.128-1.203c0,0-0.266-0.096-0.271-0.295
					c-0.006-0.201-0.457-0.66-0.752-0.805c-0.292-0.146-0.674-0.41-0.76-0.508c-0.086-0.102-0.285-0.582-0.367-0.746
					c-0.082-0.166-0.082-0.385-0.261-0.584c-0.179-0.203-0.368-0.791-0.534-0.941c-0.164-0.15-0.253-0.064-0.266-0.289
					s0.076-0.273,0.082-0.326c0.006-0.051,0.048-0.129-0.012-0.18c-0.059-0.049-0.066-0.082-0.154-0.248
					c-0.088-0.164-0.195-0.773-0.203-0.807c-0.006-0.031,0.169-0.951,0.169-0.951s0.558-0.318,0.374-0.719
					c0,0,0.139-0.424,0.168-0.508s0.324-0.355,0.324-0.355l0.034-0.453l-0.651,0.018c0,0-0.704,0.404-0.992,0.252
					c-0.287-0.154-0.512,0.148-0.563,0.096c-0.054-0.047-0.229-0.082-0.181-0.186c0.049-0.105-0.285-0.096-0.354,0.033
					c-0.066,0.133-0.438,0.24-0.484,0.189c-0.047-0.053-0.279,0.143-0.373,0.061c-0.09-0.082-0.545-0.186-0.732,0.084
					c-0.186,0.27-0.793,0.467-0.877,0.436c-0.085-0.029-0.111,0.428,0.012,0.471c0,0,0.571,1.131,1.451,0.953l0.231,2.449
					c0,0-0.257,0.297-0.507,0.078c-0.252-0.219-0.316-0.268-0.402-0.344c-0.087-0.074-0.271-0.275-0.337-0.332
					c-0.066-0.057-0.405-0.66-0.591-0.596c-0.185,0.061-0.393,0.012-0.422-0.086c-0.027-0.096-0.119-1.145-0.817-0.74l-0.612-0.223
					c0,0-0.535-0.051-0.625,0.23c-0.09,0.279-0.463,0.553-0.627,0.648c-0.166,0.094-0.583,0.209-1.537-0.037
					c0,0-0.878-0.814-1.414-0.561c0,0-1.081-0.25-1.483,0.129c-0.402,0.377-2.048,0.871-2.143,1.178c0,0,0.032,0.469-0.827,0.453
					c0,0-1.783,0.768-1.807,0.828c-0.025,0.059-0.173,0.307-0.773,0.24c-0.602-0.068-1.285-0.779-1.555-0.771
					c-0.271,0.008-1.892-0.098-2.043,0.027l-0.835-1.098c0,0-0.673-0.357-0.646-0.504c0.028-0.15-1.795-1.361-2.232-1.314
					c0,0-1.014-0.793-1.267-0.104c-0.252,0.689-1.104,1.848-1.249,1.754c-0.144-0.092-0.705,0.664-0.705,0.664l-0.549-0.32
					c0,0-1.734,1.018-2.013,1.426c-0.28,0.406-0.69,0.908-0.679,1.102c0.01,0.191-0.4,2.678,0.101,3.123
					c0.502,0.443,0.585,0.688,0.503,0.766c0,0,0.093,0.516,0.232,0.479c0,0,0.082,0.404-0.02,0.457c0,0-0.125,0.365-0.635-0.086
					l-3.927,0.168l-6.647,0.391l-0.287,4.775l-1.898,2.314l1.908-0.014l-0.053,2.865c0,0-0.359,0.053-0.376,0.178
					c0,0,0.01,0.623-0.403,1.092l-0.217,0.574c0,0-0.312,1.393-0.117,1.42c0,0,0.6,0.494,0.506,0.611c0,0-0.541,1.215-0.71,1.219
					c-0.167,0.004-1.257,0.453-1.187,0.729c0,0,1.621,1.285,1.994,1.275l0.691,1.799c0,0,0.44,0.975,0.848,1.061
					c0,0,0.52,1.07,0.479,1.264c-0.041,0.195,0.334,1.635,1.217,1.664l0.617,0.842l-0.74,0.818c0,0,0.206,0.445-0.362,0.949
					c0,0-0.175,0.939-0.36,0.957c0,0-0.514,0.111-0.422,0.863c0,0-0.297,1.264,1.14,1.955c0,0,0.062,0.59-0.065,0.697
					c0,0-0.368,0.654-0.278,1.146c0,0-1.711,0.15-1.709,0.209s-0.078,0.207-0.144,0.176c-0.065-0.029-0.098-0.055-0.163-0.078
					c-0.065-0.025-0.116-0.223-0.21-0.117s-0.136,0.217-0.201,0.186c-0.066-0.031-0.119,0.113-0.117,0.189
					c0.002,0.078-0.215,0.193-0.215,0.193l-0.131,0.141l-6.513,0.158c0,0,0.176,1.307,0.326,1.148c0,0,0.119-0.105,0.071,0.721
					c0,0,0.065,1.168,0.117,1.219c0.054,0.049,0.166,0.406-0.02,0.498c-0.187,0.092-0.617,0.756-0.527,0.873
					s0.147,0.373,0.096,0.393c-0.051,0.02-0.17,0.092-0.17,0.092s0.068,0.547,0.334,0.902c0.268,0.354,0.225,0.715,0.229,0.816
					c0.004,0.105-0.211,0.471-0.293,0.645s-0.16,0.436,0.063,0.447c0.225,0.01,0.305,0.471,0.307,0.523
					c0.002,0.051-0.178,0.418-0.26,0.59c-0.08,0.176-0.26,0.561-0.123,0.502c0,0,0.201,0.477-0.193,0.488
					c0,0-0.15,0.863,0.326,0.695c0,0,0.149,0.426,0.049,0.549c0,0,0.081,1.047,0.398,1.363
					C172.295-8.592,171.698-8.051,171.405-7.951z"/>
			</g>
			<g>
				<g>
					<g>
						<defs>
							<rect id="SVGID_89_" x="58.792" y="-44.824" width="158.907" height="79.455"/>
						</defs>
						<clipPath id="SVGID_38_">
							<use xlink:href="#SVGID_89_"  overflow="visible"/>
						</clipPath>
						<g clip-path="url(#SVGID_38_)">
							<defs>
								<path id="SVGID_91_" d="M138.245,3.557c24.752,0,45.148-18.592,48.022-42.57c9-1.576,19.284-3.51,31.432-5.811
									c0,43.881-35.573,79.455-79.454,79.455c-43.879,0-79.453-35.574-79.453-79.455c12.139,2.219,22.416,4.107,31.414,5.666
									C93.013-15.111,113.444,3.557,138.245,3.557"/>
							</defs>
							<clipPath id="SVGID_39_">
								<use xlink:href="#SVGID_91_"  overflow="visible"/>
							</clipPath>
							
								<linearGradient id="SVGID_41_" gradientUnits="userSpaceOnUse" x1="41.0303" y1="-827.1279" x2="41.9746" y2="-827.1279" gradientTransform="matrix(0 84.1367 -84.1367 0 -69453.5781 -3496.9971)">
								<stop  offset="0" style="stop-color:#221D1F"/>
								<stop  offset="0.039" style="stop-color:#27262A"/>
								<stop  offset="0.1538" style="stop-color:#323947"/>
								<stop  offset="0.2738" style="stop-color:#3A4A65"/>
								<stop  offset="0.3979" style="stop-color:#405880"/>
								<stop  offset="0.5272" style="stop-color:#456396"/>
								<stop  offset="0.6641" style="stop-color:#486CA6"/>
								<stop  offset="0.8138" style="stop-color:#4A71B0"/>
								<stop  offset="1" style="stop-color:#4A72B2"/>
							</linearGradient>
							<rect x="58.792" y="-44.824" clip-path="url(#SVGID_39_)" fill="url(#SVGID_41_)" width="158.907" height="79.455"/>
						</g>
					</g>
					<g>
						<defs>
							<path id="SVGID_94_" d="M89.625-44.67c0-26.852,21.769-48.621,48.62-48.621s48.621,21.77,48.621,48.621
								s-21.77,48.621-48.621,48.621S89.625-17.818,89.625-44.67 M59.007-44.449c0,44.654,34.583,80.854,79.237,80.854
								s79.238-36.199,79.238-80.854c0-55.844-72.959-140.385-72.959-140.385c-3.455-4.002-9.104-4.002-12.557,0
								C131.967-184.834,59.007-100.293,59.007-44.449"/>
						</defs>
						<clipPath id="SVGID_42_">
							<use xlink:href="#SVGID_94_"  overflow="visible"/>
						</clipPath>
						
							<linearGradient id="SVGID_44_" gradientUnits="userSpaceOnUse" x1="48.3594" y1="-828.3867" x2="49.304" y2="-828.3867" gradientTransform="matrix(0 237.4541 -237.4541 0 -196565.6875 -11670.9756)">
							<stop  offset="0" style="stop-color:#4A72B2"/>
							<stop  offset="0.1413" style="stop-color:#466CAC"/>
							<stop  offset="0.3718" style="stop-color:#3B5C99"/>
							<stop  offset="0.6627" style="stop-color:#27447E"/>
							<stop  offset="1" style="stop-color:#001A5A"/>
						</linearGradient>
						<rect x="59.007" y="-188.836" clip-path="url(#SVGID_42_)" fill="url(#SVGID_44_)" width="158.476" height="225.24"/>
					</g>
					<g>
						<defs>
							<path id="SVGID_97_" d="M92.667-46.709c0-25.174,20.406-45.578,45.577-45.578c25.172,0,45.578,20.404,45.578,45.578
								c0,25.17-20.406,45.578-45.578,45.578C113.074-1.131,92.667-21.539,92.667-46.709 M63.965-46.504
								c0,41.861,32.42,75.795,74.279,75.795c41.861,0,74.279-33.934,74.279-75.795c0-52.35-68.108-131.268-68.108-131.268
								c-3.395-3.934-8.946-3.934-12.341,0C132.075-177.771,63.965-98.854,63.965-46.504"/>
						</defs>
						<clipPath id="SVGID_45_">
							<use xlink:href="#SVGID_97_"  overflow="visible"/>
						</clipPath>
						
							<linearGradient id="SVGID_47_" gradientUnits="userSpaceOnUse" x1="48.085" y1="-828.3408" x2="49.0296" y2="-828.3408" gradientTransform="matrix(0 222.3887 -222.3887 0 -184075.4063 -10874.2041)">
							<stop  offset="0" style="stop-color:#4A72B2"/>
							<stop  offset="0.15" style="stop-color:#002E82"/>
							<stop  offset="1" style="stop-color:#4A72B2"/>
						</linearGradient>
						<rect x="63.965" y="-181.705" clip-path="url(#SVGID_45_)" fill="url(#SVGID_47_)" width="148.559" height="210.996"/>
					</g>
					<g>
						<defs>
							<path id="SVGID_100_" d="M92.667-44.824c0-25.172,20.406-45.578,45.577-45.578c25.172,0,45.578,20.406,45.578,45.578
								c0,25.17-20.406,45.578-45.578,45.578C113.074,0.754,92.667-19.654,92.667-44.824 M86.102-44.824
								c0,28.797,23.346,52.141,52.143,52.141s52.144-23.344,52.144-52.141c0-28.799-23.347-52.143-52.144-52.143
								S86.102-73.623,86.102-44.824"/>
						</defs>
						
							<radialGradient id="SVGID_48_" cx="138.2451" cy="-252.9404" r="52.1423" gradientTransform="matrix(1 0 0 -1 0 -297.7656)" gradientUnits="userSpaceOnUse">
							<stop  offset="0" style="stop-color:#001A5A"/>
							<stop  offset="1" style="stop-color:#4A72B2"/>
						</radialGradient>
						<use xlink:href="#SVGID_100_"  overflow="visible" fill="url(#SVGID_48_)"/>
						<clipPath id="SVGID_49_">
							<use xlink:href="#SVGID_100_"  overflow="visible"/>
						</clipPath>
						
							<radialGradient id="SVGID_51_" cx="44.2432" cy="-827.5923" r="0.4722" gradientTransform="matrix(0 110.4297 -110.4297 0 -91252.5313 -4930.5762)" gradientUnits="userSpaceOnUse">
							<stop  offset="0" style="stop-color:#001A5A"/>
							<stop  offset="1" style="stop-color:#4A72B2"/>
						</radialGradient>
						<rect x="86.102" y="-96.967" clip-path="url(#SVGID_49_)" fill="url(#SVGID_51_)" width="104.286" height="104.283"/>
					</g>
					<g>
						<defs>
							<path id="SVGID_104_" d="M92.667-44.824c0-25.172,20.406-45.578,45.577-45.578c25.172,0,45.578,20.406,45.578,45.578
								c0,25.17-20.406,45.578-45.578,45.578C113.074,0.754,92.667-19.654,92.667-44.824"/>
						</defs>
						<clipPath id="SVGID_52_">
							<use xlink:href="#SVGID_104_"  overflow="visible"/>
						</clipPath>
						
							<radialGradient id="SVGID_54_" cx="50.3193" cy="-840.5874" r="0.9441" gradientTransform="matrix(82.3975 0 0 82.3975 -4006.6802 69240.8203)" gradientUnits="userSpaceOnUse">
							<stop  offset="0" style="stop-color:#4A72B2"/>
							<stop  offset="1" style="stop-color:#001A5A"/>
						</radialGradient>
						<rect x="92.667" y="-90.402" clip-path="url(#SVGID_52_)" fill="url(#SVGID_54_)" width="91.155" height="91.156"/>
					</g>
				</g>
			</g>
		</g>
	</g>
</g>
<g>
	<g>
		<g>
			<g>
				<g>
					<g>
						<g>
							<defs>
								<path id="SVGID_107_" d="M177.775,118.734c0-26.852,21.768-48.621,48.619-48.621s48.621,21.77,48.621,48.621
									c0,26.854-21.77,48.622-48.621,48.622S177.775,145.588,177.775,118.734 M147.158,118.515
									c0,55.843,72.959,140.386,72.959,140.386c3.453,4,9.103,4,12.557,0c0,0,72.96-84.543,72.96-140.386
									c0-44.655-34.584-80.855-79.239-80.855C181.741,37.659,147.158,73.859,147.158,118.515"/>
							</defs>
							<clipPath id="SVGID_56_">
								<use xlink:href="#SVGID_107_"  overflow="visible"/>
							</clipPath>
							
								<linearGradient id="SVGID_57_" gradientUnits="userSpaceOnUse" x1="46.7939" y1="-828.7588" x2="47.7385" y2="-828.7588" gradientTransform="matrix(0 -237.4541 -237.4541 0 -196565.6875 11373.3193)">
								<stop  offset="0" style="stop-color:#D78A30"/>
								<stop  offset="0.1426" style="stop-color:#D99030"/>
								<stop  offset="0.3753" style="stop-color:#DEA030"/>
								<stop  offset="0.6688" style="stop-color:#E7BD30"/>
								<stop  offset="1" style="stop-color:#F3E02A"/>
							</linearGradient>
							<rect x="147.158" y="37.659" clip-path="url(#SVGID_56_)" fill="url(#SVGID_57_)" width="158.476" height="225.241"/>
						</g>
						<g>
							<defs>
								<path id="SVGID_110_" d="M180.818,119.83c0-25.17,20.406-45.578,45.576-45.578c25.172,0,45.578,20.408,45.578,45.578
									c0,25.172-20.406,45.577-45.578,45.577C201.224,165.407,180.818,145.002,180.818,119.83 M152.116,119.625
									c0,52.348,68.11,131.268,68.11,131.268c3.393,3.934,8.945,3.934,12.34,0c0,0,68.109-78.92,68.109-131.268
									c0-41.861-32.42-75.796-74.281-75.796C184.535,43.829,152.116,77.764,152.116,119.625"/>
							</defs>
							<clipPath id="SVGID_59_">
								<use xlink:href="#SVGID_110_"  overflow="visible"/>
							</clipPath>
							
								<linearGradient id="SVGID_60_" gradientUnits="userSpaceOnUse" x1="46.4175" y1="-828.7373" x2="47.3621" y2="-828.7373" gradientTransform="matrix(0 -222.3887 -222.3887 0 -184075.4063 10576.5479)">
								<stop  offset="0" style="stop-color:#E6B32F"/>
								<stop  offset="0.15" style="stop-color:#DE9E30"/>
								<stop  offset="1" style="stop-color:#EFCB2C"/>
							</linearGradient>
							<rect x="152.116" y="43.829" clip-path="url(#SVGID_59_)" fill="url(#SVGID_60_)" width="148.56" height="210.997"/>
						</g>
						<g opacity="0.75">
							<g>
								<defs>
									<rect id="SVGID_113_" x="146.941" y="37.659" width="158.908" height="79.455"/>
								</defs>
								<clipPath id="SVGID_62_">
									<use xlink:href="#SVGID_113_"  overflow="visible"/>
								</clipPath>
								<g clip-path="url(#SVGID_62_)">
									<defs>
										<path id="SVGID_115_" d="M226.394,68.734c24.752,0,45.148,18.591,48.022,42.569c9.001,1.577,19.285,3.511,31.433,5.811
											c0-43.88-35.574-79.455-79.455-79.455c-43.879,0-79.453,35.575-79.453,79.455c12.139-2.218,22.416-4.107,31.416-5.665
											C181.163,87.4,201.593,68.734,226.394,68.734"/>
									</defs>
									<clipPath id="SVGID_64_">
										<use xlink:href="#SVGID_115_"  overflow="visible"/>
									</clipPath>
									
										<linearGradient id="SVGID_65_" gradientUnits="userSpaceOnUse" x1="36.6318" y1="-828.1758" x2="37.5762" y2="-828.1758" gradientTransform="matrix(0 -84.1367 -84.1367 0 -69453.5781 3199.2158)">
										<stop  offset="0" style="stop-color:#221D1F"/>
										<stop  offset="0.0888" style="stop-color:#42382A"/>
										<stop  offset="0.1975" style="stop-color:#635333"/>
										<stop  offset="0.3113" style="stop-color:#887038"/>
										<stop  offset="0.429" style="stop-color:#AC8D39"/>
										<stop  offset="0.5516" style="stop-color:#CAA837"/>
										<stop  offset="0.6815" style="stop-color:#E0BD32"/>
										<stop  offset="0.8234" style="stop-color:#ECC82E"/>
										<stop  offset="1" style="stop-color:#EFCB2C"/>
									</linearGradient>
									<rect x="146.941" y="37.659" clip-path="url(#SVGID_64_)" fill="url(#SVGID_65_)" width="158.908" height="79.455"/>
								</g>
							</g>
						</g>
						<g>
							<defs>
								<path id="SVGID_118_" d="M180.818,119.83c0-25.17,20.406-45.578,45.576-45.578c25.172,0,45.578,20.408,45.578,45.578
									c0,25.172-20.406,45.577-45.578,45.577C201.224,165.407,180.818,145.002,180.818,119.83 M174.251,119.83
									c0,28.799,23.346,52.143,52.143,52.143s52.144-23.344,52.144-52.143c0-28.797-23.347-52.143-52.144-52.143
									S174.251,91.033,174.251,119.83"/>
							</defs>
							<clipPath id="SVGID_67_">
								<use xlink:href="#SVGID_118_"  overflow="visible"/>
							</clipPath>
							
								<linearGradient id="SVGID_68_" gradientUnits="userSpaceOnUse" x1="40.3945" y1="-828.3906" x2="41.3389" y2="-828.3906" gradientTransform="matrix(0 -110.4297 -110.4297 0 -91252.5313 4632.7949)">
								<stop  offset="0" style="stop-color:#EFCB2C"/>
								<stop  offset="1" style="stop-color:#DE9E30"/>
							</linearGradient>
							<rect x="174.251" y="67.688" clip-path="url(#SVGID_67_)" fill="url(#SVGID_68_)" width="104.286" height="104.285"/>
						</g>
						<g>
							<defs>
								<path id="SVGID_121_" d="M180.818,119.83c0,25.172,20.406,45.577,45.576,45.577c25.172,0,45.578-20.405,45.578-45.577
									c0-25.17-20.406-45.578-45.578-45.578C201.224,74.252,180.818,94.66,180.818,119.83"/>
							</defs>
							<clipPath id="SVGID_70_">
								<use xlink:href="#SVGID_121_"  overflow="visible"/>
							</clipPath>
							
								<radialGradient id="SVGID_71_" cx="51.3892" cy="-845.1118" r="0.9441" gradientTransform="matrix(82.3975 0 0 -82.3975 -4006.6802 -69538.6016)" gradientUnits="userSpaceOnUse">
								<stop  offset="0" style="stop-color:#E9E338"/>
								<stop  offset="1" style="stop-color:#D17731"/>
							</radialGradient>
							<rect x="180.818" y="74.252" clip-path="url(#SVGID_70_)" fill="url(#SVGID_71_)" width="91.154" height="91.155"/>
						</g>
					</g>
					<path opacity="0.3" fill="#CB6120" d="M192.003,95.438l19.295,0.51c0,0,0.592-0.59,0.71-0.534c0,0-0.149-0.21-0.513-0.116
						c0,0-0.244,0.113-0.15-0.158c0,0,0.181-0.341,0.235-0.424c0.054-0.085-0.179-0.4-0.04-0.483c0,0-0.074-0.413,0.029-0.446
						c0,0,0.284-0.318,0.309-0.629c0,0,0.125-0.15,0.192-0.131c0,0-0.016-0.705,0.028-1.047c0,0,0.229-0.184,0.251-0.372
						c0,0-0.472-1.011-0.469-1.132c0,0-0.28-0.469,0.136-0.614c0,0,0.331-0.146,0.392-0.47c0,0,0.36-0.627,0.497-0.589
						c0,0,0.048-1.168,0.508-1.671c0,0,0.817,0.934,1.035,1.764l0.322,0.215c0,0,0.248,1.674,0.297,1.813
						c0.046,0.139,0.467,0.514,0.53,0.703s0.075,0.377,0.144,0.434c0.066,0.051,0.203,0.105,0.203,0.105s0.375,0.115,0.157,0.59
						c0,0-0.089,0.102-0.11,0.256c0,0,0.008,0.325-0.028,0.395l-0.077,0.342l0.165,0.227l0.071,0.313c0,0,0.127,0.141-0.008,0.257
						l0.054,0.189c0,0,0.092,0.468,0.212,0.487l-0.014,0.533l0.55-0.02c0.067,0.053,0.479,0.082,0.51,0.22s-0.011,0.446-0.011,0.446
						s0.342,0.061,0.494,0.15s0.496,0.082,0.614,0.119c0.12,0.038,0.911,0.645,1.105,1.112c0,0-0.151,0.495,0.151,0.829
						c0,0,1.049-0.04,1.164,0.15c0.114,0.193,0.184,0.229,0.334,0.955c0,0,0.314-0.181,0.453-0.178
						c0.137,0.004,38.882,3.9,38.882,3.9l0.174,0.004c0,0-0.245,0.266-0.261,0.381c0,0-0.103,0.215-0.133,0.377
						c-0.029,0.159-0.059,0.293-0.145,0.375c-0.086,0.084-0.237,0.149-0.331,0.287c-0.093,0.141-0.212,0.234-0.221,0.326
						c-0.009,0.089-0.048,0.127,0.024,0.232c0,0-0.037,0.469-0.117,0.627c-0.082,0.16-0.168,0.453-0.176,0.486
						c-0.007,0.031-0.211,0.161-0.265,0.27c-0.055,0.107-0.013,0.25-0.075,0.391c-0.062,0.141-0.184,0.137-0.198,0.207
						c-0.015,0.071-0.075,0.372-0.075,0.372s-0.012,0.252-0.058,0.263c-0.046,0.012-0.476,0.201-0.479,0.291
						c0,0,0.081,0.124,0.13,0.236c0.049,0.111,0.182,0.164,0.107,0.311s-0.32,0.424-0.336,0.507c0,0,0.104,0.236,0.135,0.257
						c0.032,0.02-0.049,0.178-0.082,0.197c-0.032,0.018-0.084,0.022-0.106,0.111c-0.021,0.09-0.001,0.041,0.015,0.188
						c0.016,0.149,0.092,0.448,0.092,0.448s0.004,0.09-0.098,0.273c-0.102,0.185-0.247,0.342-0.247,0.342l0.001,0.393
						c0,0,0.07,0.318-0.391,0.9c0,0-0.15,0.336-0.131,0.545c0.021,0.205-0.043,0.699,0.114,0.801l0.327,0.086
						c0,0-0.02,0.464-0.073,0.545c-0.054,0.084-0.224,0.169-0.237,0.195c-0.012,0.023-0.06,0.346,0.021,0.465
						c0.08,0.117,0.099,0.441,0.099,0.441l0.305,0.148l-0.129,0.235c0,0-0.073,0.101,0.01,0.136s-0.018,0.172-0.076,0.19
						c0,0-0.116,0.011-0.125,0.106c-0.01,0.098-0.02,0.264,0.017,0.316c0.038,0.054,0.075,0.105,0.081,0.133
						c0.006,0.023-0.16,0.71-0.074,0.847c0.087,0.139,0.199,0.026,0.135,0.308c-0.066,0.281,0.053,0.408,0.053,0.408
						s0.11,0.459,0.088,0.563c-0.021,0.102,0.031,0.059-0.131,0.324c-0.162,0.268-0.259,0.496-0.293,0.619
						c-0.035,0.121-0.023,0.404-0.023,0.404s0.212,0.006,0.256,0.072c0.043,0.063,0.044,0.529,0.071,0.685
						c0.028,0.155-0.046,0.308,0.114,0.312c0.162,0.004,0.127,0.088,0.254,0.148c0.127,0.063,0.316,0.01,0.316,0.01
						s0.289-0.019,0.027,0.394c-0.263,0.412-0.5,0.638-0.5,0.638s0.199,0.049,0.125,0.139c-0.072,0.087-0.204,0.188-0.207,0.284
						c-0.003,0.097,0.077,0.479,0.018,0.776c-0.059,0.293-0.092,0.563-0.273,0.842c-0.182,0.279-0.172,0.395-0.147,0.467
						c0.024,0.071-0.124,0.035-0.198,0.227c-0.076,0.19-0.373,0.152-0.428,0.324c-0.057,0.172-0.227,0.973-0.306,1.035
						s-0.331,0.104-0.331,0.104s-0.053,0.011,0.014,0.219c0.064,0.207,0.1,0.583,0.1,0.583s-0.076,0.435-0.145,0.601
						s-0.011,0.413,0.051,0.505c0.063,0.093,0.139,0.358,0.139,0.358s-0.273,0.398-0.518,0.088c0,0-0.066,0.09-0.061,0.334
						c0.008,0.245-0.06,0.314-0.133,0.404c-0.074,0.086-0.227,0.547-0.229,0.605s-0.085,0.506-0.079,0.539
						c0.006,0.032,0.142,0.48,0.147,0.545c0.004,0.066-0.25,0.432-0.25,0.432s0.004,0.084,0.014,0.175
						c0.012,0.091-0.112,0.385-0.161,0.485c-0.048,0.102-0.073,0.096-0.161,0.252c-0.088,0.16-0.096,0.232-0.123,0.322
						c-0.029,0.09-0.024,0.16-0.039,0.23c-0.016,0.069-0.105,0.346-0.109,0.455c-0.003,0.109-0.979,0.723-0.979,0.723
						s-0.235,0.082-0.291-0.223c0,0-0.154-0.313-0.419-0.023c0,0-0.515,0.213-0.634,0.344c-0.12,0.133-0.287-0.154-0.686,0.311
						l-0.378,0.402c0,0-0.292,0.573-0.331,0.805c-0.038,0.231,0.216,0.135,0.012,0.521c-0.203,0.389-0.135,0.506-0.209,0.634
						c-0.075,0.127-0.02,0.456-0.112,0.339c-0.094-0.119-0.167-0.257-0.233-0.188s-0.1,0.088-0.027,0.296s0.268,0.065,0.1,0.356
						c-0.168,0.293-0.52,0.883-0.613,0.996c-0.093,0.114-0.25,0.219-0.293,0.115s-0.258-0.246-0.281-0.072
						c-0.023,0.173-0.185,0.37-0.234,0.316c-0.051-0.053-1.535,0.035-1.535,0.035s-0.456,0.903-0.509,0.975
						c-0.054,0.069,0.11,0.196-0.297,0.256c-0.408,0.061-0.593,0.197-0.625,0.24c-0.034,0.046-0.325,0.122-0.347,0.173
						c-0.02,0.051-0.02,0.27-0.028,0.359c-0.009,0.091-0.135,0.202-0.135,0.202l-0.755,0.252c0,0-0.265,0.276-0.061,0.578
						c0.205,0.303,0.904,0.475-0.127,1.203c0,0-0.268,0.096-0.273,0.295c-0.005,0.199-0.455,0.659-0.75,0.805
						c-0.293,0.146-0.674,0.409-0.76,0.508c-0.087,0.102-0.287,0.581-0.369,0.746c-0.082,0.164-0.08,0.384-0.26,0.584
						c-0.18,0.203-0.369,0.791-0.533,0.941c-0.166,0.15-0.254,0.064-0.267,0.289s0.077,0.271,0.081,0.324
						c0.006,0.053,0.049,0.131-0.01,0.182c-0.06,0.049-0.067,0.082-0.155,0.246c-0.089,0.166-0.194,0.775-0.202,0.809
						c-0.006,0.031,0.168,0.951,0.168,0.951s0.559,0.317,0.374,0.719c0,0,0.138,0.422,0.169,0.508
						c0.029,0.084,0.324,0.355,0.324,0.355l0.033,0.452l-0.65-0.017c0,0-0.705-0.404-0.992-0.252
						c-0.288,0.153-0.512-0.148-0.564-0.098c-0.053,0.049-0.229,0.083-0.18,0.188c0.049,0.105-0.286,0.096-0.354-0.035
						s-0.439-0.238-0.484-0.188c-0.047,0.051-0.28-0.143-0.373-0.061c-0.092,0.082-0.546,0.186-0.732-0.084
						s-0.793-0.467-0.878-0.436c-0.085,0.029-0.11-0.429,0.012-0.471c0,0,0.571-1.132,1.45-0.953l0.232-2.449
						c0,0-0.257-0.297-0.506-0.079c-0.252,0.219-0.316,0.269-0.402,0.345c-0.088,0.074-0.273,0.275-0.338,0.332
						c-0.066,0.056-0.404,0.66-0.59,0.596c-0.186-0.062-0.393-0.011-0.422,0.087c-0.027,0.096-0.121,1.144-0.818,0.739l-0.611,0.222
						c0,0-0.537,0.051-0.625-0.229c-0.091-0.28-0.464-0.554-0.629-0.648c-0.165-0.094-0.581-0.209-1.535,0.036
						c0,0-0.879,0.815-1.414,0.562c0,0-1.082,0.249-1.484-0.129s-2.047-0.873-2.143-1.179c0,0,0.032-0.47-0.826-0.452
						c0,0-1.783-0.77-1.808-0.829c-0.024-0.058-0.173-0.307-0.773-0.239c-0.603,0.068-1.284,0.779-1.556,0.771
						c-0.27-0.007-1.891,0.098-2.041-0.027l-0.836,1.099c0,0-0.673,0.357-0.645,0.504c0.027,0.15-1.797,1.36-2.233,1.314
						c0,0-1.014,0.793-1.267,0.104c-0.252-0.689-1.104-1.848-1.248-1.754c-0.145,0.092-0.705-0.665-0.705-0.665l-0.55,0.321
						c0,0-1.733-1.018-2.013-1.426c-0.279-0.406-0.69-0.908-0.679-1.102c0.011-0.192-0.401-2.678,0.102-3.123
						c0.501-0.443,0.585-0.688,0.503-0.767c0,0,0.092-0.515,0.232-0.478c0,0,0.081-0.404-0.021-0.459c0,0-0.124-0.363-0.634,0.087
						l-3.928-0.167l-6.648-0.39l-0.286-4.776l-1.898-2.314l1.907,0.014l-0.053-2.866c0,0-0.358-0.054-0.375-0.177
						c0,0,0.01-0.624-0.403-1.092l-0.218-0.575c0,0-0.311-1.394-0.117-1.42c0,0,0.6-0.494,0.508-0.612c0,0-0.543-1.213-0.71-1.217
						c-0.167-0.006-1.257-0.453-1.187-0.729c0,0,1.621-1.285,1.993-1.275l0.692-1.8c0,0,0.439-0.974,0.846-1.061
						c0,0,0.521-1.069,0.48-1.263c-0.041-0.195,0.334-1.637,1.217-1.663l0.615-0.842l-0.739-0.819c0,0,0.206-0.445-0.362-0.95
						c0,0-0.174-0.938-0.361-0.956c0,0-0.512-0.112-0.422-0.863c0,0-0.295-1.264,1.141-1.954c0,0,0.063-0.592-0.064-0.698
						c0,0-0.369-0.655-0.279-1.148c0,0-1.71-0.148-1.709-0.207c0.002-0.058-0.078-0.207-0.144-0.178
						c-0.065,0.031-0.098,0.056-0.163,0.079c-0.064,0.025-0.115,0.224-0.21,0.118c-0.094-0.106-0.136-0.217-0.2-0.187
						c-0.066,0.03-0.12-0.112-0.117-0.189c0.002-0.078-0.215-0.193-0.215-0.193l-0.131-0.14l-6.513-0.159
						c0,0,0.175-1.308,0.325-1.148c0,0,0.119,0.104,0.072-0.72c0,0,0.064-1.168,0.117-1.219c0.053-0.049,0.166-0.406-0.021-0.498
						s-0.616-0.756-0.526-0.873c0.088-0.118,0.146-0.375,0.096-0.393c-0.051-0.02-0.17-0.092-0.17-0.092s0.066-0.548,0.334-0.901
						c0.267-0.354,0.225-0.716,0.227-0.819c0.004-0.103-0.21-0.471-0.291-0.644c-0.082-0.174-0.161-0.435,0.063-0.446
						c0.225-0.01,0.305-0.473,0.307-0.523s-0.179-0.418-0.26-0.591c-0.08-0.175-0.261-0.56-0.125-0.501c0,0,0.203-0.478-0.193-0.488
						c0,0-0.148-0.863,0.328-0.695c0,0,0.148-0.427,0.049-0.549c0,0,0.08-1.047,0.398-1.365
						C192.894,96.076,192.296,95.535,192.003,95.438z"/>
				</g>
				<g>
					<g>
						<g>
							<defs>
								<path id="SVGID_124_" d="M321.611,112.135c0-28.605,23.188-51.795,51.79-51.795c28.604,0,51.797,23.189,51.797,51.795
									c0,28.601-23.193,51.791-51.797,51.791C344.798,163.926,321.611,140.735,321.611,112.135 M288.994,111.896
									c0,59.49,77.722,149.549,77.722,149.549c3.678,4.262,9.695,4.262,13.375,0c0,0,77.721-90.059,77.721-149.549
									c0-47.563-36.844-86.131-84.41-86.131C325.835,25.766,288.994,64.333,288.994,111.896"/>
							</defs>
							<clipPath id="SVGID_73_">
								<use xlink:href="#SVGID_124_"  overflow="visible"/>
							</clipPath>
							
								<linearGradient id="SVGID_74_" gradientUnits="userSpaceOnUse" x1="42.8071" y1="-830.1621" x2="44.7843" y2="-830.1621" gradientTransform="matrix(0 -120.8271 -120.8271 0 -99932.6016 5436.9219)">
								<stop  offset="0" style="stop-color:#5CA03E"/>
								<stop  offset="0.1398" style="stop-color:#65A43D"/>
								<stop  offset="0.3679" style="stop-color:#7BAC3B"/>
								<stop  offset="0.6557" style="stop-color:#9AB937"/>
								<stop  offset="0.9892" style="stop-color:#C4CF30"/>
								<stop  offset="1" style="stop-color:#C5D030"/>
							</linearGradient>
							<rect x="288.994" y="25.766" clip-path="url(#SVGID_73_)" fill="url(#SVGID_74_)" width="168.817" height="239.941"/>
						</g>
						<g>
							<defs>
								<path id="SVGID_127_" d="M324.851,113.299c0-26.812,21.736-48.551,48.55-48.551c26.814,0,48.553,21.739,48.553,48.551
									c0,26.814-21.738,48.555-48.553,48.555C346.587,161.854,324.851,140.113,324.851,113.299 M294.274,113.083
									c0,55.763,72.557,139.837,72.557,139.837c3.615,4.186,9.527,4.186,13.143,0c0,0,72.559-84.074,72.559-139.837
									c0-44.591-34.537-80.741-79.131-80.741C328.81,32.342,294.274,68.492,294.274,113.083"/>
							</defs>
							<clipPath id="SVGID_76_">
								<use xlink:href="#SVGID_127_"  overflow="visible"/>
							</clipPath>
							
								<linearGradient id="SVGID_77_" gradientUnits="userSpaceOnUse" x1="42.1997" y1="-830.2354" x2="44.1773" y2="-830.2354" gradientTransform="matrix(0 -113.1609 -113.1609 0 -93576.7891 5031.4277)">
								<stop  offset="0" style="stop-color:#69A53C"/>
								<stop  offset="0.15" style="stop-color:#60A23D"/>
								<stop  offset="1" style="stop-color:#9DBA33"/>
							</linearGradient>
							<rect x="294.274" y="32.342" clip-path="url(#SVGID_76_)" fill="url(#SVGID_77_)" width="158.258" height="224.764"/>
						</g>
						<g opacity="0.75">
							<g>
								<defs>
									<rect id="SVGID_130_" x="288.762" y="25.766" width="169.277" height="84.643"/>
								</defs>
								<clipPath id="SVGID_79_">
									<use xlink:href="#SVGID_130_"  overflow="visible"/>
								</clipPath>
								<g clip-path="url(#SVGID_79_)">
									<defs>
										<path id="SVGID_132_" d="M373.401,58.869c26.367,0,48.094,19.807,51.158,45.35c9.586,1.682,20.541,3.74,33.48,6.189
											c0-46.746-37.895-84.643-84.639-84.643c-46.741,0-84.639,37.896-84.639,84.643c12.931-2.364,23.88-4.375,33.467-6.035
											C325.22,78.756,346.983,58.869,373.401,58.869"/>
									</defs>
									<clipPath id="SVGID_81_">
										<use xlink:href="#SVGID_132_"  overflow="visible"/>
									</clipPath>
									
										<linearGradient id="SVGID_82_" gradientUnits="userSpaceOnUse" x1="27.2485" y1="-832.146" x2="29.2256" y2="-832.146" gradientTransform="matrix(0 -42.8125 -42.8125 0 -35252.8398 1276.999)">
										<stop  offset="0" style="stop-color:#3C001A"/>
										<stop  offset="0.0612" style="stop-color:#472D22"/>
										<stop  offset="0.1586" style="stop-color:#574A2B"/>
										<stop  offset="0.2608" style="stop-color:#666431"/>
										<stop  offset="0.3656" style="stop-color:#767E35"/>
										<stop  offset="0.4741" style="stop-color:#849437"/>
										<stop  offset="0.5871" style="stop-color:#90A736"/>
										<stop  offset="0.7067" style="stop-color:#98B335"/>
										<stop  offset="0.8374" style="stop-color:#9CB933"/>
										<stop  offset="1" style="stop-color:#9DBA33"/>
									</linearGradient>
									<rect x="288.761" y="25.766" clip-path="url(#SVGID_81_)" fill="url(#SVGID_82_)" width="169.278" height="84.643"/>
								</g>
							</g>
						</g>
						<g>
							<defs>
								<path id="SVGID_135_" d="M324.851,113.299c0-26.812,21.736-48.551,48.55-48.551c26.814,0,48.553,21.739,48.553,48.551
									c0,26.814-21.738,48.555-48.553,48.555C346.587,161.854,324.851,140.113,324.851,113.299 M317.857,113.299
									c0,30.676,24.869,55.547,55.544,55.547c30.678,0,55.545-24.871,55.545-55.547c0-30.672-24.867-55.541-55.545-55.541
									C342.726,57.758,317.857,82.627,317.857,113.299"/>
							</defs>
							<clipPath id="SVGID_84_">
								<use xlink:href="#SVGID_135_"  overflow="visible"/>
							</clipPath>
							
								<linearGradient id="SVGID_85_" gradientUnits="userSpaceOnUse" x1="32.7065" y1="-831.415" x2="34.6836" y2="-831.415" gradientTransform="matrix(0 -56.1904 -56.1904 0 -46344.1641 2006.613)">
								<stop  offset="0" style="stop-color:#9DBA33"/>
								<stop  offset="1" style="stop-color:#60A23D"/>
							</linearGradient>
							<rect x="317.857" y="57.758" clip-path="url(#SVGID_84_)" fill="url(#SVGID_85_)" width="111.089" height="111.088"/>
						</g>
						<g>
							<defs>
								<path id="SVGID_138_" d="M324.851,113.299c0,26.814,21.736,48.555,48.55,48.555c26.814,0,48.553-21.74,48.553-48.555
									c0-26.812-21.738-48.551-48.553-48.551C346.587,64.748,324.851,86.487,324.851,113.299"/>
							</defs>
							<clipPath id="SVGID_87_">
								<use xlink:href="#SVGID_138_"  overflow="visible"/>
							</clipPath>
							
								<radialGradient id="SVGID_88_" cx="55.4707" cy="-854.4063" r="1.9774" gradientTransform="matrix(41.9278 0 0 -41.9278 -1951.0417 -35734.9375)" gradientUnits="userSpaceOnUse">
								<stop  offset="0" style="stop-color:#E4E02B"/>
								<stop  offset="1" style="stop-color:#4B9C40"/>
							</radialGradient>
							<rect x="324.851" y="64.748" clip-path="url(#SVGID_87_)" fill="url(#SVGID_88_)" width="97.103" height="97.105"/>
						</g>
					</g>
					<path opacity="0.3" fill="#336535" d="M339.009,86.014l19.294,0.51c0,0,0.592-0.589,0.711-0.534c0,0-0.148-0.21-0.512-0.116
						c0,0-0.244,0.113-0.152-0.158c0,0,0.182-0.34,0.236-0.423c0.053-0.085-0.18-0.401-0.041-0.483c0,0-0.074-0.414,0.031-0.447
						c0,0,0.283-0.317,0.309-0.627c0,0,0.123-0.152,0.191-0.133c0,0-0.016-0.705,0.027-1.047c0,0,0.229-0.184,0.252-0.372
						c0,0-0.473-1.011-0.469-1.131c0,0-0.281-0.47,0.137-0.615c0,0,0.33-0.146,0.391-0.47c0,0,0.359-0.627,0.496-0.588
						c0,0,0.049-1.168,0.508-1.672c0,0,0.818,0.934,1.037,1.764l0.322,0.215c0,0,0.246,1.675,0.297,1.813
						c0.045,0.139,0.467,0.515,0.529,0.704c0.063,0.188,0.076,0.377,0.143,0.433c0.066,0.051,0.203,0.106,0.203,0.106
						s0.375,0.113,0.158,0.589c0,0-0.09,0.103-0.111,0.256c0,0,0.008,0.325-0.027,0.395l-0.078,0.342l0.166,0.227l0.072,0.313
						c0,0,0.125,0.14-0.01,0.257l0.055,0.189c0,0,0.092,0.468,0.211,0.487l-0.014,0.533l0.551-0.02
						c0.068,0.054,0.479,0.082,0.51,0.221c0.031,0.137-0.012,0.445-0.012,0.445s0.342,0.061,0.494,0.15s0.498,0.082,0.615,0.119
						c0.119,0.039,0.912,0.645,1.105,1.113c0,0-0.15,0.494,0.15,0.829c0,0,1.049-0.041,1.164,0.15s0.184,0.228,0.336,0.954
						c0,0,0.314-0.18,0.451-0.178c0.139,0.004,38.883,3.9,38.883,3.9l0.174,0.005c0,0-0.244,0.265-0.262,0.38
						c0,0-0.102,0.216-0.131,0.378c-0.031,0.159-0.061,0.292-0.146,0.375s-0.236,0.149-0.33,0.287
						c-0.094,0.14-0.213,0.233-0.221,0.324c-0.01,0.091-0.049,0.128,0.025,0.233c0,0-0.039,0.469-0.119,0.627
						c-0.082,0.16-0.166,0.453-0.174,0.486c-0.008,0.031-0.211,0.162-0.266,0.27s-0.012,0.25-0.076,0.391
						c-0.061,0.14-0.184,0.139-0.197,0.207c-0.016,0.07-0.074,0.373-0.074,0.373s-0.014,0.251-0.059,0.262
						c-0.045,0.012-0.477,0.201-0.479,0.291c0,0,0.08,0.123,0.129,0.235s0.182,0.166,0.107,0.312
						c-0.074,0.147-0.318,0.424-0.336,0.508c0,0,0.104,0.235,0.135,0.256c0.033,0.021-0.049,0.178-0.082,0.197
						c-0.031,0.018-0.084,0.022-0.105,0.111c-0.021,0.09,0,0.041,0.016,0.188c0.014,0.149,0.09,0.448,0.09,0.448
						s0.004,0.091-0.098,0.273c-0.102,0.184-0.246,0.342-0.246,0.342l0.002,0.394c0,0,0.068,0.317-0.393,0.899
						c0,0-0.148,0.336-0.129,0.545c0.02,0.206-0.045,0.699,0.113,0.802l0.326,0.085c0,0-0.018,0.465-0.072,0.545
						c-0.053,0.084-0.223,0.17-0.236,0.196c-0.014,0.022-0.061,0.346,0.02,0.464c0.08,0.117,0.098,0.441,0.098,0.441l0.307,0.149
						l-0.129,0.235c0,0-0.074,0.1,0.008,0.135c0.084,0.035-0.018,0.172-0.076,0.191c0,0-0.115,0.01-0.125,0.106
						c-0.008,0.096-0.02,0.263,0.018,0.315s0.074,0.105,0.082,0.133c0.004,0.024-0.162,0.711-0.074,0.847
						c0.086,0.14,0.197,0.026,0.133,0.308c-0.066,0.281,0.055,0.408,0.055,0.408s0.109,0.459,0.086,0.562
						c-0.021,0.103,0.031,0.06-0.131,0.326c-0.16,0.267-0.258,0.496-0.293,0.618c-0.035,0.121-0.023,0.404-0.023,0.404
						s0.213,0.006,0.256,0.072c0.043,0.063,0.045,0.529,0.072,0.686c0.029,0.154-0.047,0.308,0.115,0.31
						c0.16,0.005,0.125,0.089,0.252,0.149c0.129,0.063,0.316,0.01,0.316,0.01s0.291-0.018,0.027,0.395
						c-0.262,0.41-0.5,0.637-0.5,0.637s0.199,0.049,0.127,0.139c-0.074,0.088-0.205,0.188-0.209,0.284
						c-0.002,0.097,0.078,0.479,0.02,0.776c-0.061,0.294-0.092,0.563-0.273,0.842c-0.182,0.279-0.172,0.396-0.148,0.467
						c0.025,0.071-0.123,0.035-0.199,0.227c-0.076,0.19-0.371,0.152-0.428,0.324s-0.225,0.973-0.305,1.035
						c-0.08,0.064-0.33,0.104-0.33,0.104s-0.053,0.011,0.012,0.219c0.066,0.207,0.102,0.584,0.102,0.584s-0.076,0.434-0.146,0.6
						c-0.066,0.166-0.01,0.414,0.053,0.506c0.061,0.092,0.137,0.358,0.137,0.358s-0.273,0.397-0.518,0.087
						c0,0-0.064,0.09-0.059,0.335s-0.061,0.313-0.135,0.403c-0.072,0.087-0.227,0.547-0.229,0.605s-0.084,0.507-0.078,0.539
						s0.143,0.48,0.146,0.545c0.006,0.066-0.25,0.432-0.25,0.432s0.006,0.084,0.016,0.176c0.012,0.091-0.113,0.385-0.162,0.484
						c-0.047,0.102-0.072,0.096-0.16,0.252c-0.09,0.16-0.098,0.232-0.125,0.321c-0.029,0.091-0.023,0.161-0.039,0.232
						c-0.016,0.069-0.105,0.345-0.109,0.454c-0.002,0.109-0.979,0.723-0.979,0.723s-0.234,0.082-0.291-0.222
						c0,0-0.152-0.313-0.418-0.024c0,0-0.514,0.213-0.635,0.344c-0.119,0.133-0.285-0.154-0.684,0.311l-0.379,0.402
						c0,0-0.293,0.574-0.332,0.805c-0.037,0.232,0.217,0.135,0.014,0.522s-0.137,0.505-0.211,0.633
						c-0.074,0.127-0.02,0.456-0.111,0.339c-0.094-0.119-0.168-0.258-0.234-0.188c-0.066,0.069-0.1,0.088-0.027,0.295
						c0.072,0.209,0.27,0.066,0.1,0.359c-0.168,0.291-0.52,0.882-0.611,0.994c-0.094,0.115-0.252,0.219-0.293,0.115
						c-0.043-0.104-0.26-0.245-0.283-0.072c-0.021,0.173-0.184,0.369-0.232,0.316c-0.051-0.053-1.535,0.035-1.535,0.035
						s-0.457,0.903-0.51,0.975c-0.055,0.07,0.109,0.197-0.297,0.256c-0.408,0.061-0.594,0.197-0.625,0.241
						c-0.033,0.045-0.326,0.122-0.346,0.172c-0.021,0.052-0.021,0.27-0.029,0.36c-0.01,0.09-0.135,0.201-0.135,0.201l-0.754,0.252
						c0,0-0.266,0.277-0.061,0.578c0.205,0.303,0.902,0.475-0.129,1.203c0,0-0.266,0.096-0.271,0.295
						c-0.006,0.2-0.457,0.659-0.752,0.805c-0.291,0.146-0.674,0.409-0.76,0.508c-0.086,0.102-0.285,0.581-0.367,0.746
						s-0.082,0.384-0.26,0.584c-0.18,0.202-0.369,0.791-0.535,0.941c-0.164,0.15-0.252,0.064-0.266,0.289
						c-0.012,0.225,0.076,0.273,0.082,0.325s0.049,0.13-0.012,0.181c-0.059,0.049-0.066,0.082-0.154,0.248
						c-0.088,0.164-0.195,0.773-0.203,0.806c-0.006,0.032,0.17,0.952,0.17,0.952s0.557,0.317,0.373,0.718
						c0,0,0.139,0.424,0.168,0.509c0.029,0.084,0.324,0.355,0.324,0.355l0.035,0.452l-0.652-0.017c0,0-0.703-0.404-0.992-0.252
						c-0.287,0.153-0.512-0.148-0.563-0.097c-0.055,0.048-0.229,0.083-0.182,0.187c0.049,0.105-0.285,0.096-0.354-0.034
						c-0.066-0.132-0.438-0.239-0.484-0.188c-0.047,0.052-0.279-0.143-0.373-0.061c-0.09,0.082-0.545,0.186-0.732-0.084
						c-0.186-0.27-0.793-0.467-0.877-0.436c-0.084,0.029-0.111-0.429,0.012-0.471c0,0,0.572-1.132,1.451-0.953l0.232-2.449
						c0,0-0.258-0.298-0.508-0.079c-0.252,0.22-0.316,0.269-0.402,0.345c-0.086,0.074-0.271,0.275-0.336,0.332
						c-0.066,0.057-0.406,0.66-0.592,0.596c-0.184-0.062-0.393-0.012-0.422,0.086c-0.027,0.096-0.119,1.145-0.816,0.74l-0.613,0.223
						c0,0-0.535,0.05-0.625-0.23c-0.09-0.279-0.463-0.554-0.627-0.648c-0.166-0.094-0.582-0.209-1.537,0.036
						c0,0-0.877,0.814-1.414,0.562c0,0-1.08,0.25-1.482-0.129c-0.402-0.377-2.049-0.872-2.143-1.178c0,0,0.031-0.47-0.828-0.453
						c0,0-1.783-0.769-1.807-0.828c-0.025-0.059-0.172-0.307-0.773-0.24c-0.602,0.068-1.285,0.778-1.555,0.771
						c-0.271-0.007-1.891,0.099-2.043-0.027l-0.834,1.099c0,0-0.674,0.356-0.646,0.504c0.029,0.15-1.795,1.36-2.232,1.314
						c0,0-1.014,0.793-1.266,0.104s-1.105-1.848-1.25-1.755c-0.143,0.093-0.705-0.664-0.705-0.664l-0.549,0.321
						c0,0-1.734-1.018-2.012-1.426c-0.281-0.406-0.691-0.908-0.68-1.102c0.01-0.191-0.4-2.678,0.102-3.123
						c0.502-0.443,0.584-0.688,0.502-0.766c0,0,0.094-0.516,0.232-0.479c0,0,0.082-0.404-0.02-0.457c0,0-0.125-0.365-0.635,0.086
						l-3.926-0.168l-6.647-0.391l-0.287-4.775l-1.898-2.314l1.908,0.014l-0.053-2.865c0,0-0.359-0.054-0.376-0.178
						c0,0,0.01-0.624-0.403-1.092l-0.217-0.574c0,0-0.312-1.394-0.117-1.42c0,0,0.6-0.495,0.506-0.611c0,0-0.541-1.215-0.71-1.219
						c-0.167-0.005-1.257-0.453-1.187-0.729c0,0,1.621-1.285,1.994-1.275l0.691-1.8c0,0,0.44-0.974,0.848-1.06
						c0,0,0.52-1.071,0.479-1.264c-0.041-0.195,0.334-1.636,1.217-1.664l0.617-0.842l-0.74-0.818c0,0,0.206-0.445-0.362-0.95
						c0,0-0.175-0.938-0.36-0.956c0,0-0.514-0.111-0.422-0.863c0,0-0.297-1.264,1.14-1.955c0,0,0.062-0.591-0.065-0.697
						c0,0-0.368-0.654-0.278-1.147c0,0-1.711-0.149-1.709-0.208s-0.078-0.207-0.144-0.177s-0.098,0.056-0.163,0.078
						c-0.065,0.026-0.116,0.224-0.21,0.118s-0.136-0.217-0.201-0.187c-0.066,0.031-0.119-0.112-0.117-0.188
						c0.002-0.079-0.215-0.194-0.215-0.194l-0.131-0.14l-6.513-0.159c0,0,0.176-1.306,0.326-1.148c0,0,0.119,0.105,0.071-0.72
						c0,0,0.065-1.168,0.117-1.219c0.054-0.049,0.166-0.406-0.02-0.498c-0.187-0.092-0.617-0.756-0.527-0.873
						s0.147-0.374,0.096-0.393c-0.051-0.021-0.17-0.092-0.17-0.092s0.068-0.547,0.334-0.902c0.268-0.354,0.225-0.716,0.229-0.817
						c0.004-0.104-0.211-0.471-0.293-0.645s-0.16-0.435,0.063-0.446c0.225-0.01,0.305-0.472,0.307-0.523
						c0.002-0.051-0.178-0.418-0.26-0.59c-0.08-0.176-0.26-0.561-0.123-0.502c0,0,0.201-0.477-0.193-0.489
						c0,0-0.15-0.863,0.326-0.694c0,0,0.149-0.426,0.049-0.549c0,0,0.081-1.047,0.398-1.364
						C339.9,86.653,339.302,86.113,339.009,86.014z"/>
				</g>
				<g>
					<g>
						<g>
							<defs>
								<rect id="SVGID_141_" x="226.396" y="43.432" width="158.907" height="79.455"/>
							</defs>
							<clipPath id="SVGID_90_">
								<use xlink:href="#SVGID_141_"  overflow="visible"/>
							</clipPath>
							<g clip-path="url(#SVGID_90_)">
								<defs>
									<path id="SVGID_143_" d="M305.849,74.506c24.752,0,45.148,18.591,48.022,42.57c9,1.576,19.283,3.51,31.432,5.811
										c0-43.881-35.573-79.455-79.454-79.455c-43.879,0-79.453,35.574-79.453,79.455c12.139-2.219,22.416-4.108,31.414-5.666
										C260.618,93.173,281.048,74.506,305.849,74.506"/>
								</defs>
								<clipPath id="SVGID_92_">
									<use xlink:href="#SVGID_143_"  overflow="visible"/>
								</clipPath>
								
									<linearGradient id="SVGID_93_" gradientUnits="userSpaceOnUse" x1="36.5635" y1="-829.1201" x2="37.5078" y2="-829.1201" gradientTransform="matrix(0 -84.1367 -84.1367 0 -69453.5781 3199.2158)">
									<stop  offset="0" style="stop-color:#221D1F"/>
									<stop  offset="0.039" style="stop-color:#27262A"/>
									<stop  offset="0.1538" style="stop-color:#323947"/>
									<stop  offset="0.2738" style="stop-color:#3A4A65"/>
									<stop  offset="0.3979" style="stop-color:#405880"/>
									<stop  offset="0.5272" style="stop-color:#456396"/>
									<stop  offset="0.6641" style="stop-color:#486CA6"/>
									<stop  offset="0.8138" style="stop-color:#4A71B0"/>
									<stop  offset="1" style="stop-color:#4A72B2"/>
								</linearGradient>
								<rect x="226.396" y="43.432" clip-path="url(#SVGID_92_)" fill="url(#SVGID_93_)" width="158.907" height="79.455"/>
							</g>
						</g>
						<g>
							<defs>
								<path id="SVGID_146_" d="M257.229,122.731c0-26.851,21.769-48.62,48.62-48.62s48.621,21.77,48.621,48.62
									c0,26.853-21.77,48.622-48.621,48.622S257.229,149.584,257.229,122.731 M226.612,122.512
									c0,55.844,72.96,140.385,72.96,140.385c3.452,4.002,9.102,4.002,12.557,0c0,0,72.958-84.541,72.958-140.385
									c0-44.654-34.583-80.854-79.237-80.854S226.612,77.857,226.612,122.512"/>
							</defs>
							<clipPath id="SVGID_95_">
								<use xlink:href="#SVGID_146_"  overflow="visible"/>
							</clipPath>
							
								<linearGradient id="SVGID_96_" gradientUnits="userSpaceOnUse" x1="46.7773" y1="-829.0928" x2="47.7214" y2="-829.0928" gradientTransform="matrix(0 -237.4541 -237.4541 0 -196565.6875 11373.3193)">
								<stop  offset="0" style="stop-color:#4A72B2"/>
								<stop  offset="0.1413" style="stop-color:#466CAC"/>
								<stop  offset="0.3718" style="stop-color:#3B5C99"/>
								<stop  offset="0.6627" style="stop-color:#27447E"/>
								<stop  offset="1" style="stop-color:#001A5A"/>
							</linearGradient>
							<rect x="226.612" y="41.657" clip-path="url(#SVGID_95_)" fill="url(#SVGID_96_)" width="158.475" height="225.241"/>
						</g>
						<g>
							<defs>
								<path id="SVGID_149_" d="M260.272,124.771c0-25.17,20.406-45.578,45.577-45.578c25.172,0,45.578,20.408,45.578,45.578
									c0,25.173-20.406,45.578-45.578,45.578C280.678,170.35,260.272,149.944,260.272,124.771 M231.57,124.566
									c0,52.35,68.109,131.268,68.109,131.268c3.395,3.934,8.946,3.934,12.341,0c0,0,68.107-78.918,68.107-131.268
									c0-41.861-32.417-75.796-74.278-75.796C263.99,48.771,231.57,82.705,231.57,124.566"/>
							</defs>
							<clipPath id="SVGID_98_">
								<use xlink:href="#SVGID_149_"  overflow="visible"/>
							</clipPath>
							
								<linearGradient id="SVGID_99_" gradientUnits="userSpaceOnUse" x1="46.3955" y1="-829.0942" x2="47.3396" y2="-829.0942" gradientTransform="matrix(0 -222.3887 -222.3887 0 -184075.4063 10576.5479)">
								<stop  offset="0" style="stop-color:#4A72B2"/>
								<stop  offset="0.15" style="stop-color:#002E82"/>
								<stop  offset="1" style="stop-color:#4A72B2"/>
							</linearGradient>
							<rect x="231.57" y="48.771" clip-path="url(#SVGID_98_)" fill="url(#SVGID_99_)" width="148.558" height="210.997"/>
						</g>
						<g>
							<defs>
								<path id="SVGID_152_" d="M260.272,122.887c0-25.17,20.406-45.578,45.577-45.578c25.172,0,45.578,20.408,45.578,45.578
									c0,25.172-20.406,45.577-45.578,45.577C280.678,168.464,260.272,148.059,260.272,122.887 M253.707,122.887
									c0,28.799,23.346,52.143,52.143,52.143s52.144-23.344,52.144-52.143c0-28.797-23.347-52.142-52.144-52.142
									S253.707,94.09,253.707,122.887"/>
							</defs>
							<radialGradient id="SVGID_101_" cx="305.8496" cy="122.8867" r="52.1428" gradientUnits="userSpaceOnUse">
								<stop  offset="0" style="stop-color:#001A5A"/>
								<stop  offset="1" style="stop-color:#4A72B2"/>
							</radialGradient>
							<use xlink:href="#SVGID_152_"  overflow="visible" fill="url(#SVGID_101_)"/>
							<clipPath id="SVGID_102_">
								<use xlink:href="#SVGID_152_"  overflow="visible"/>
							</clipPath>
							
								<radialGradient id="SVGID_103_" cx="40.8394" cy="-829.1104" r="0.4724" gradientTransform="matrix(0 -110.4297 -110.4297 0 -91252.5313 4632.7949)" gradientUnits="userSpaceOnUse">
								<stop  offset="0" style="stop-color:#001A5A"/>
								<stop  offset="1" style="stop-color:#4A72B2"/>
							</radialGradient>
							<rect x="253.707" y="70.745" clip-path="url(#SVGID_102_)" fill="url(#SVGID_103_)" width="104.286" height="104.284"/>
						</g>
						<g>
							<defs>
								<path id="SVGID_156_" d="M260.272,122.887c0,25.172,20.406,45.577,45.577,45.577c25.172,0,45.578-20.405,45.578-45.577
									c0-25.17-20.406-45.578-45.578-45.578C280.678,77.309,260.272,97.717,260.272,122.887"/>
							</defs>
							<clipPath id="SVGID_105_">
								<use xlink:href="#SVGID_156_"  overflow="visible"/>
							</clipPath>
							
								<radialGradient id="SVGID_106_" cx="52.3535" cy="-845.1489" r="0.9441" gradientTransform="matrix(82.3975 0 0 -82.3975 -4006.6802 -69538.6016)" gradientUnits="userSpaceOnUse">
								<stop  offset="0" style="stop-color:#4A72B2"/>
								<stop  offset="1" style="stop-color:#001A5A"/>
							</radialGradient>
							<rect x="260.272" y="77.309" clip-path="url(#SVGID_105_)" fill="url(#SVGID_106_)" width="91.155" height="91.155"/>
						</g>
					</g>
					<path opacity="0.3" fill="#76AADB" d="M271.457,98.492l19.295,0.51c0,0,0.593-0.59,0.711-0.535c0,0-0.148-0.21-0.512-0.116
						c0,0-0.244,0.114-0.152-0.159c0,0,0.182-0.34,0.236-0.422c0.053-0.086-0.179-0.4-0.039-0.484c0,0-0.075-0.414,0.029-0.446
						c0,0,0.283-0.317,0.309-0.628c0,0,0.124-0.151,0.191-0.132c0,0-0.016-0.704,0.028-1.047c0,0,0.229-0.183,0.252-0.372
						c0,0-0.473-1.01-0.47-1.131c0,0-0.28-0.47,0.137-0.615c0,0,0.331-0.146,0.391-0.47c0,0,0.36-0.626,0.497-0.589
						c0,0,0.048-1.168,0.508-1.672c0,0,0.817,0.934,1.036,1.765l0.322,0.216c0,0,0.246,1.674,0.297,1.813
						c0.045,0.138,0.467,0.514,0.529,0.703c0.063,0.188,0.076,0.377,0.144,0.433c0.067,0.052,0.202,0.106,0.202,0.106
						s0.376,0.113,0.158,0.59c0,0-0.089,0.102-0.11,0.256c0,0,0.009,0.324-0.028,0.393l-0.078,0.343l0.167,0.227l0.071,0.312
						c0,0,0.125,0.141-0.008,0.258l0.053,0.189c0,0,0.092,0.469,0.211,0.488l-0.014,0.531l0.551-0.02
						c0.068,0.055,0.479,0.083,0.51,0.221c0.031,0.137-0.012,0.445-0.012,0.445s0.343,0.062,0.495,0.15
						c0.152,0.091,0.497,0.082,0.615,0.12s0.911,0.645,1.104,1.112c0,0-0.15,0.496,0.15,0.83c0,0,1.049-0.041,1.164,0.15
						s0.184,0.228,0.336,0.955c0,0,0.314-0.182,0.451-0.179c0.139,0.003,38.883,3.899,38.883,3.899l0.174,0.006
						c0,0-0.244,0.264-0.261,0.38c0,0-0.103,0.216-0.132,0.378c-0.031,0.158-0.06,0.293-0.146,0.375
						c-0.085,0.083-0.235,0.148-0.33,0.287c-0.094,0.14-0.212,0.234-0.221,0.324c-0.01,0.09-0.049,0.127,0.025,0.232
						c0,0-0.038,0.471-0.117,0.628c-0.083,0.161-0.168,0.453-0.176,0.485s-0.211,0.162-0.266,0.271
						c-0.054,0.106-0.012,0.25-0.075,0.389c-0.062,0.141-0.184,0.139-0.198,0.208c-0.014,0.071-0.074,0.372-0.074,0.372
						s-0.013,0.252-0.059,0.263c-0.045,0.013-0.476,0.201-0.479,0.29c0,0,0.081,0.125,0.13,0.236s0.182,0.166,0.107,0.313
						c-0.075,0.146-0.319,0.424-0.336,0.506c0,0,0.104,0.236,0.135,0.257c0.032,0.021-0.049,0.179-0.083,0.196
						c-0.031,0.02-0.083,0.023-0.105,0.113c-0.021,0.09,0,0.039,0.016,0.188c0.014,0.148,0.09,0.449,0.09,0.449
						s0.005,0.09-0.098,0.272c-0.101,0.185-0.246,0.342-0.246,0.342l0.002,0.394c0,0,0.069,0.317-0.392,0.898
						c0,0-0.149,0.338-0.13,0.545c0.021,0.207-0.044,0.701,0.113,0.803l0.326,0.085c0,0-0.018,0.464-0.072,0.545
						c-0.053,0.085-0.223,0.169-0.236,0.196c-0.014,0.023-0.061,0.346,0.02,0.463c0.08,0.118,0.098,0.443,0.098,0.443l0.307,0.148
						l-0.129,0.234c0,0-0.074,0.101,0.009,0.136c0.083,0.034-0.018,0.172-0.076,0.19c0,0-0.116,0.011-0.125,0.107
						c-0.009,0.096-0.02,0.264,0.017,0.315c0.039,0.054,0.074,0.104,0.082,0.134c0.006,0.023-0.162,0.709-0.074,0.846
						c0.086,0.139,0.198,0.025,0.133,0.308c-0.066,0.28,0.055,0.407,0.055,0.407s0.109,0.461,0.087,0.563
						c-0.021,0.103,0.03,0.061-0.132,0.326c-0.16,0.266-0.258,0.496-0.292,0.619c-0.035,0.12-0.024,0.403-0.024,0.403
						s0.213,0.007,0.257,0.073c0.042,0.063,0.044,0.527,0.071,0.684c0.029,0.155-0.047,0.309,0.115,0.311
						c0.16,0.006,0.125,0.088,0.253,0.15c0.128,0.062,0.315,0.01,0.315,0.01s0.291-0.02,0.028,0.393s-0.499,0.638-0.499,0.638
						s0.197,0.05,0.125,0.138c-0.073,0.088-0.205,0.189-0.208,0.285c-0.003,0.098,0.077,0.48,0.019,0.776
						c-0.06,0.294-0.092,0.563-0.273,0.842c-0.182,0.279-0.172,0.396-0.148,0.468c0.025,0.07-0.123,0.033-0.199,0.227
						c-0.076,0.189-0.371,0.151-0.427,0.323c-0.057,0.172-0.226,0.974-0.305,1.035c-0.079,0.063-0.331,0.103-0.331,0.103
						s-0.053,0.012,0.013,0.221c0.065,0.205,0.101,0.582,0.101,0.582s-0.076,0.435-0.146,0.601
						c-0.067,0.167-0.011,0.413,0.052,0.505c0.062,0.092,0.138,0.359,0.138,0.359s-0.274,0.396-0.518,0.086
						c0,0-0.065,0.092-0.06,0.336s-0.061,0.313-0.134,0.402c-0.073,0.088-0.227,0.549-0.229,0.607
						c-0.001,0.057-0.085,0.506-0.079,0.539c0.006,0.031,0.143,0.479,0.147,0.545c0.005,0.064-0.25,0.432-0.25,0.432
						s0.005,0.083,0.015,0.174c0.012,0.092-0.113,0.385-0.162,0.486c-0.047,0.101-0.072,0.096-0.16,0.252
						c-0.088,0.16-0.097,0.231-0.124,0.32c-0.029,0.09-0.024,0.161-0.039,0.232c-0.016,0.068-0.105,0.345-0.11,0.453
						c-0.002,0.11-0.979,0.724-0.979,0.724s-0.234,0.083-0.29-0.222c0,0-0.153-0.313-0.419-0.025c0,0-0.514,0.213-0.635,0.345
						c-0.119,0.133-0.285-0.154-0.684,0.312l-0.379,0.4c0,0-0.293,0.574-0.331,0.805c-0.038,0.232,0.216,0.135,0.013,0.523
						s-0.136,0.506-0.211,0.633c-0.074,0.127-0.02,0.457-0.111,0.339c-0.094-0.119-0.167-0.257-0.234-0.188
						c-0.066,0.07-0.099,0.089-0.027,0.297c0.072,0.208,0.27,0.064,0.101,0.357c-0.169,0.291-0.519,0.883-0.612,0.996
						s-0.251,0.219-0.293,0.113c-0.043-0.103-0.26-0.244-0.282-0.071s-0.185,0.37-0.233,0.316c-0.051-0.052-1.535,0.036-1.535,0.036
						s-0.456,0.902-0.51,0.973s0.11,0.197-0.297,0.257c-0.408,0.06-0.592,0.196-0.625,0.241s-0.326,0.121-0.346,0.172
						c-0.021,0.051-0.021,0.27-0.029,0.359c-0.01,0.091-0.135,0.203-0.135,0.203l-0.754,0.251c0,0-0.266,0.276-0.061,0.578
						c0.205,0.303,0.902,0.476-0.129,1.204c0,0-0.266,0.096-0.271,0.293c-0.006,0.201-0.456,0.66-0.751,0.805
						c-0.292,0.146-0.674,0.41-0.76,0.51c-0.087,0.101-0.286,0.58-0.368,0.745s-0.081,0.384-0.26,0.584
						c-0.18,0.202-0.369,0.79-0.534,0.941c-0.165,0.15-0.253,0.064-0.266,0.29c-0.013,0.225,0.076,0.271,0.081,0.324
						c0.006,0.053,0.049,0.13-0.012,0.181c-0.059,0.049-0.066,0.083-0.154,0.247c-0.088,0.165-0.194,0.773-0.202,0.807
						c-0.007,0.031,0.169,0.952,0.169,0.952s0.558,0.317,0.373,0.718c0,0,0.139,0.424,0.169,0.509
						c0.028,0.084,0.324,0.355,0.324,0.355l0.034,0.452l-0.65-0.018c0,0-0.705-0.404-0.993-0.252
						c-0.288,0.154-0.513-0.147-0.563-0.096c-0.054,0.048-0.229,0.082-0.182,0.186c0.051,0.107-0.285,0.098-0.353-0.033
						c-0.067-0.133-0.438-0.239-0.484-0.188c-0.048,0.051-0.279-0.143-0.374-0.062c-0.09,0.081-0.545,0.185-0.731-0.085
						s-0.794-0.465-0.878-0.435c-0.084,0.029-0.11-0.429,0.012-0.471c0,0,0.572-1.132,1.451-0.954l0.232-2.448
						c0,0-0.258-0.298-0.508-0.079c-0.251,0.219-0.316,0.269-0.402,0.345c-0.086,0.075-0.271,0.274-0.336,0.331
						c-0.066,0.057-0.405,0.662-0.59,0.598c-0.186-0.063-0.395-0.012-0.422,0.086c-0.028,0.096-0.121,1.144-0.818,0.738
						l-0.613,0.223c0,0-0.535,0.051-0.625-0.229c-0.089-0.28-0.463-0.554-0.627-0.649c-0.166-0.094-0.582-0.209-1.536,0.037
						c0,0-0.878,0.814-1.415,0.561c0,0-1.08,0.25-1.482-0.128s-2.048-0.872-2.143-1.179c0,0,0.031-0.469-0.827-0.452
						c0,0-1.783-0.769-1.808-0.829c-0.024-0.059-0.172-0.307-0.773-0.24c-0.602,0.068-1.284,0.779-1.555,0.771
						c-0.271-0.006-1.891,0.098-2.042-0.027l-0.835,1.099c0,0-0.674,0.356-0.646,0.505c0.029,0.149-1.795,1.359-2.232,1.314
						c0,0-1.014,0.792-1.266,0.103c-0.252-0.69-1.105-1.847-1.25-1.755c-0.143,0.093-0.705-0.664-0.705-0.664l-0.549,0.322
						c0,0-1.732-1.02-2.012-1.427c-0.281-0.407-0.691-0.908-0.68-1.102c0.011-0.192-0.4-2.679,0.102-3.123
						c0.502-0.443,0.584-0.688,0.503-0.767c0,0,0.093-0.516,0.232-0.479c0,0,0.081-0.404-0.02-0.457c0,0-0.126-0.365-0.635,0.086
						l-3.927-0.168l-6.648-0.389l-0.287-4.777l-1.898-2.313l1.908,0.013l-0.053-2.865c0,0-0.359-0.053-0.375-0.176
						c0,0,0.01-0.625-0.404-1.094l-0.217-0.574c0,0-0.311-1.393-0.117-1.42c0,0,0.6-0.494,0.506-0.611c0,0-0.541-1.214-0.709-1.219
						c-0.167-0.004-1.258-0.453-1.186-0.728c0,0,1.619-1.285,1.992-1.276l0.693-1.799c0,0,0.439-0.975,0.846-1.061
						c0,0,0.521-1.07,0.479-1.263c-0.04-0.196,0.333-1.636,1.216-1.663l0.617-0.842l-0.739-0.819c0,0,0.206-0.445-0.362-0.95
						c0,0-0.175-0.938-0.361-0.957c0,0-0.513-0.111-0.422-0.861c0,0-0.296-1.264,1.141-1.955c0,0,0.062-0.592-0.066-0.698
						c0,0-0.367-0.655-0.277-1.147c0,0-1.711-0.148-1.709-0.207s-0.078-0.208-0.145-0.178c-0.064,0.03-0.098,0.055-0.162,0.078
						c-0.066,0.025-0.117,0.223-0.211,0.119c-0.094-0.107-0.135-0.219-0.201-0.188c-0.064,0.031-0.118-0.113-0.117-0.189
						c0.002-0.078-0.214-0.193-0.214-0.193l-0.132-0.139l-6.512-0.16c0,0,0.176-1.307,0.326-1.148c0,0,0.119,0.105,0.072-0.72
						c0,0,0.064-1.169,0.116-1.219c0.054-0.049,0.166-0.407-0.021-0.498c-0.186-0.091-0.617-0.755-0.526-0.873
						c0.089-0.118,0.147-0.374,0.096-0.393c-0.052-0.021-0.17-0.091-0.17-0.091s0.067-0.549,0.334-0.902
						c0.267-0.355,0.224-0.717,0.228-0.818c0.004-0.104-0.211-0.471-0.292-0.645s-0.161-0.435,0.063-0.445
						c0.225-0.012,0.304-0.473,0.306-0.524s-0.177-0.419-0.258-0.591c-0.082-0.175-0.262-0.56-0.125-0.501
						c0,0,0.202-0.478-0.193-0.489c0,0-0.149-0.863,0.328-0.695c0,0,0.148-0.426,0.048-0.549c0,0,0.081-1.047,0.397-1.363
						C272.347,99.131,271.75,98.59,271.457,98.492z"/>
				</g>
			</g>
		</g>
	</g>
	<g>
		<text transform="matrix(1 0 0 1 98.1694 367.0752)" font-family="'NexaLight'" font-size="18.1894">CULTURA, TURISMO, CINCIA E TECNOLOGIA </text>
		<text transform="matrix(1 0 0 1 391.3501 343.9316)" fill="#444242" font-family="'NexaBold'" font-size="81.6821">MT</text>
		<text transform="matrix(1 0 0 1 92.6616 343.3594)" fill="#001A5A" font-family="'NexaLight'" font-size="81.6821">MAPAS</text>
	</g>
</g>
</svg>
