<?xml version="1.0" encoding="utf-8"?>
<!-- Generator: Adobe Illustrator 16.0.0, SVG Export Plug-In . SVG Version: 6.00 Build 0)  -->
<!DOCTYPE svg PUBLIC "-//W3C//DTD SVG 1.1//EN" "http://www.w3.org/Graphics/SVG/1.1/DTD/svg11.dtd">
<svg version="1.1" id="Camada_1" xmlns="http://www.w3.org/2000/svg" xmlns:xlink="http://www.w3.org/1999/xlink" x="0px" y="0px"
	 width="585.433px" height="445.039px" viewBox="0 0 585.433 445.039" enable-background="new 0 0 585.433 445.039"
	 xml:space="preserve">
<g>
	<g>
		<g>
			<g>
				<g>
					<g>
						<g>
							<defs>
								<path id="SVGID_161_" d="M177.776,118.734c0-26.852,21.768-48.621,48.619-48.621s48.621,21.77,48.621,48.621
									c0,26.854-21.77,48.622-48.621,48.622S177.776,145.588,177.776,118.734 M147.159,118.515
									c0,55.843,72.959,140.386,72.959,140.386c3.453,4,9.102,4,12.557,0c0,0,72.959-84.543,72.959-140.386
									c0-44.655-34.584-80.855-79.238-80.855S147.159,73.859,147.159,118.515"/>
							</defs>
							<clipPath id="SVGID_2_">
								<use xlink:href="#SVGID_161_"  overflow="visible"/>
							</clipPath>
							
								<linearGradient id="SVGID_3_" gradientUnits="userSpaceOnUse" x1="-782.5806" y1="-832.251" x2="-781.636" y2="-832.251" gradientTransform="matrix(0 -237.4541 -237.4541 0 -197395.0625 -185565.0625)">
								<stop  offset="0" style="stop-color:#D78A30"/>
								<stop  offset="0.1426" style="stop-color:#D99030"/>
								<stop  offset="0.3753" style="stop-color:#DEA030"/>
								<stop  offset="0.6688" style="stop-color:#E7BD30"/>
								<stop  offset="1" style="stop-color:#F3E02A"/>
							</linearGradient>
							<rect x="147.159" y="37.659" clip-path="url(#SVGID_2_)" fill="url(#SVGID_3_)" width="158.475" height="225.241"/>
						</g>
						<g>
							<defs>
								<path id="SVGID_164_" d="M180.819,119.83c0-25.17,20.406-45.578,45.576-45.578c25.172,0,45.578,20.408,45.578,45.578
									c0,25.172-20.406,45.577-45.578,45.577C201.226,165.407,180.819,145.002,180.819,119.83 M152.116,119.625
									c0,52.348,68.111,131.268,68.111,131.268c3.393,3.934,8.945,3.934,12.34,0c0,0,68.109-78.92,68.109-131.268
									c0-41.861-32.42-75.796-74.281-75.796C184.536,43.829,152.116,77.764,152.116,119.625"/>
							</defs>
							<clipPath id="SVGID_5_">
								<use xlink:href="#SVGID_164_"  overflow="visible"/>
							</clipPath>
							
								<linearGradient id="SVGID_6_" gradientUnits="userSpaceOnUse" x1="-782.957" y1="-832.4663" x2="-782.0125" y2="-832.4663" gradientTransform="matrix(0 -222.3887 -222.3887 0 -184904.7813 -173866.9531)">
								<stop  offset="0" style="stop-color:#E6B32F"/>
								<stop  offset="0.15" style="stop-color:#DE9E30"/>
								<stop  offset="1" style="stop-color:#EFCB2C"/>
							</linearGradient>
							<rect x="152.116" y="43.829" clip-path="url(#SVGID_5_)" fill="url(#SVGID_6_)" width="148.561" height="210.997"/>
						</g>
						<g opacity="0.75">
							<g>
								<defs>
									<rect id="SVGID_167_" x="146.942" y="37.659" width="158.908" height="79.455"/>
								</defs>
								<clipPath id="SVGID_8_">
									<use xlink:href="#SVGID_167_"  overflow="visible"/>
								</clipPath>
								<g clip-path="url(#SVGID_8_)">
									<defs>
										<path id="SVGID_169_" d="M226.396,68.734c24.752,0,45.148,18.591,48.021,42.569c9.002,1.577,19.285,3.511,31.434,5.811
											c0-43.88-35.574-79.455-79.455-79.455c-43.879,0-79.453,35.575-79.453,79.455c12.139-2.218,22.416-4.107,31.416-5.665
											C181.163,87.4,201.595,68.734,226.396,68.734"/>
									</defs>
									<clipPath id="SVGID_10_">
										<use xlink:href="#SVGID_169_"  overflow="visible"/>
									</clipPath>
									
										<linearGradient id="SVGID_11_" gradientUnits="userSpaceOnUse" x1="-792.7427" y1="-838.0332" x2="-791.7983" y2="-838.0332" gradientTransform="matrix(0 -84.1367 -84.1367 0 -70282.9531 -66581.6172)">
										<stop  offset="0" style="stop-color:#221D1F"/>
										<stop  offset="0.0888" style="stop-color:#42382A"/>
										<stop  offset="0.1975" style="stop-color:#635333"/>
										<stop  offset="0.3113" style="stop-color:#887038"/>
										<stop  offset="0.429" style="stop-color:#AC8D39"/>
										<stop  offset="0.5516" style="stop-color:#CAA837"/>
										<stop  offset="0.6815" style="stop-color:#E0BD32"/>
										<stop  offset="0.8234" style="stop-color:#ECC82E"/>
										<stop  offset="1" style="stop-color:#EFCB2C"/>
									</linearGradient>
									<rect x="146.942" y="37.659" clip-path="url(#SVGID_10_)" fill="url(#SVGID_11_)" width="158.908" height="79.455"/>
								</g>
							</g>
						</g>
						<g>
							<defs>
								<path id="SVGID_172_" d="M180.819,119.83c0-25.17,20.406-45.578,45.576-45.578c25.172,0,45.578,20.408,45.578,45.578
									c0,25.172-20.406,45.577-45.578,45.577C201.226,165.407,180.819,145.002,180.819,119.83 M174.253,119.83
									c0,28.799,23.346,52.143,52.143,52.143s52.143-23.344,52.143-52.143c0-28.797-23.346-52.143-52.143-52.143
									S174.253,91.033,174.253,119.83"/>
							</defs>
							<clipPath id="SVGID_13_">
								<use xlink:href="#SVGID_172_"  overflow="visible"/>
							</clipPath>
							
								<linearGradient id="SVGID_14_" gradientUnits="userSpaceOnUse" x1="-788.98" y1="-835.9009" x2="-788.0356" y2="-835.9009" gradientTransform="matrix(0 -110.4297 -110.4297 0 -92081.9063 -86954.7813)">
								<stop  offset="0" style="stop-color:#EFCB2C"/>
								<stop  offset="1" style="stop-color:#DE9E30"/>
							</linearGradient>
							<rect x="174.253" y="67.688" clip-path="url(#SVGID_13_)" fill="url(#SVGID_14_)" width="104.285" height="104.285"/>
						</g>
						<g>
							<defs>
								<path id="SVGID_175_" d="M180.819,119.83c0,25.172,20.406,45.577,45.576,45.577c25.172,0,45.578-20.405,45.578-45.577
									c0-25.17-20.406-45.578-45.578-45.578C201.226,74.252,180.819,94.66,180.819,119.83"/>
							</defs>
							<clipPath id="SVGID_16_">
								<use xlink:href="#SVGID_175_"  overflow="visible"/>
							</clipPath>
							
								<radialGradient id="SVGID_17_" cx="-767.9199" cy="-845.1118" r="0.9441" gradientTransform="matrix(82.3975 0 0 -82.3975 63502.332 -69538.6016)" gradientUnits="userSpaceOnUse">
								<stop  offset="0" style="stop-color:#E9E338"/>
								<stop  offset="1" style="stop-color:#D17731"/>
							</radialGradient>
							<rect x="180.819" y="74.252" clip-path="url(#SVGID_16_)" fill="url(#SVGID_17_)" width="91.154" height="91.155"/>
						</g>
					</g>
					<path opacity="0.3" fill="#CB6120" d="M192.005,95.438l19.295,0.51c0,0,0.592-0.59,0.709-0.534c0,0-0.148-0.21-0.512-0.116
						c0,0-0.244,0.113-0.15-0.158c0,0,0.18-0.341,0.234-0.424c0.055-0.085-0.178-0.4-0.039-0.483c0,0-0.074-0.413,0.029-0.446
						c0,0,0.283-0.318,0.309-0.629c0,0,0.125-0.15,0.191-0.131c0,0-0.016-0.705,0.029-1.047c0,0,0.229-0.184,0.25-0.372
						c0,0-0.471-1.011-0.469-1.132c0,0-0.279-0.469,0.137-0.614c0,0,0.33-0.146,0.391-0.47c0,0,0.361-0.627,0.498-0.589
						c0,0,0.047-1.168,0.508-1.671c0,0,0.816,0.934,1.035,1.764l0.322,0.215c0,0,0.248,1.674,0.297,1.813
						c0.045,0.139,0.467,0.514,0.529,0.703c0.064,0.189,0.076,0.377,0.145,0.434c0.066,0.051,0.203,0.105,0.203,0.105
						s0.375,0.115,0.156,0.59c0,0-0.088,0.102-0.109,0.256c0,0,0.008,0.325-0.029,0.395l-0.076,0.342l0.164,0.227l0.072,0.313
						c0,0,0.127,0.141-0.008,0.257l0.053,0.189c0,0,0.092,0.468,0.213,0.487l-0.014,0.533l0.549-0.02
						c0.068,0.053,0.48,0.082,0.51,0.22c0.031,0.138-0.01,0.446-0.01,0.446s0.342,0.061,0.494,0.15s0.496,0.082,0.613,0.119
						c0.121,0.038,0.912,0.645,1.105,1.112c0,0-0.15,0.495,0.152,0.829c0,0,1.049-0.04,1.164,0.15
						c0.113,0.193,0.184,0.229,0.334,0.955c0,0,0.314-0.181,0.453-0.178c0.137,0.004,38.881,3.9,38.881,3.9l0.174,0.004
						c0,0-0.244,0.266-0.26,0.381c0,0-0.104,0.215-0.133,0.377c-0.029,0.159-0.059,0.293-0.145,0.375
						c-0.086,0.084-0.238,0.149-0.332,0.287c-0.092,0.141-0.211,0.234-0.221,0.326c-0.008,0.089-0.047,0.127,0.025,0.232
						c0,0-0.037,0.469-0.117,0.627c-0.082,0.16-0.168,0.453-0.176,0.486c-0.008,0.031-0.211,0.161-0.266,0.27
						c-0.055,0.107-0.012,0.25-0.074,0.391s-0.184,0.137-0.199,0.207c-0.014,0.071-0.074,0.372-0.074,0.372
						s-0.012,0.252-0.059,0.263c-0.045,0.012-0.475,0.201-0.479,0.291c0,0,0.082,0.124,0.131,0.236
						c0.049,0.111,0.182,0.164,0.107,0.311s-0.32,0.424-0.336,0.507c0,0,0.104,0.236,0.135,0.257
						c0.031,0.02-0.049,0.178-0.082,0.197c-0.033,0.018-0.084,0.022-0.107,0.111c-0.021,0.09,0,0.041,0.016,0.188
						c0.016,0.149,0.092,0.448,0.092,0.448s0.004,0.09-0.098,0.273c-0.102,0.185-0.248,0.342-0.248,0.342l0.002,0.393
						c0,0,0.07,0.318-0.391,0.9c0,0-0.15,0.336-0.131,0.545c0.021,0.205-0.043,0.699,0.113,0.801l0.328,0.086
						c0,0-0.02,0.464-0.074,0.545c-0.053,0.084-0.223,0.169-0.236,0.195c-0.012,0.023-0.061,0.346,0.02,0.465
						c0.08,0.117,0.1,0.441,0.1,0.441l0.305,0.148l-0.129,0.235c0,0-0.074,0.101,0.01,0.136c0.082,0.035-0.018,0.172-0.076,0.19
						c0,0-0.117,0.011-0.125,0.106c-0.01,0.098-0.02,0.264,0.016,0.316c0.039,0.054,0.076,0.105,0.082,0.133
						c0.006,0.023-0.16,0.71-0.074,0.847c0.086,0.139,0.199,0.026,0.135,0.308c-0.066,0.281,0.053,0.408,0.053,0.408
						s0.109,0.459,0.088,0.563c-0.021,0.102,0.031,0.059-0.131,0.324c-0.162,0.268-0.26,0.496-0.293,0.619
						c-0.035,0.121-0.023,0.404-0.023,0.404s0.211,0.006,0.256,0.072c0.043,0.063,0.043,0.529,0.07,0.685
						c0.029,0.155-0.045,0.308,0.115,0.312c0.162,0.004,0.127,0.088,0.254,0.148c0.127,0.063,0.316,0.01,0.316,0.01
						s0.289-0.019,0.027,0.394c-0.264,0.412-0.5,0.638-0.5,0.638s0.199,0.049,0.125,0.139c-0.072,0.087-0.205,0.188-0.207,0.284
						c-0.004,0.097,0.076,0.479,0.018,0.776c-0.059,0.293-0.092,0.563-0.273,0.842c-0.182,0.279-0.172,0.395-0.148,0.467
						c0.025,0.071-0.123,0.035-0.197,0.227c-0.076,0.19-0.373,0.152-0.428,0.324c-0.057,0.172-0.227,0.973-0.307,1.035
						c-0.078,0.063-0.33,0.104-0.33,0.104s-0.053,0.011,0.014,0.219c0.064,0.207,0.1,0.583,0.1,0.583s-0.076,0.435-0.145,0.601
						s-0.012,0.413,0.051,0.505c0.063,0.093,0.139,0.358,0.139,0.358s-0.273,0.398-0.518,0.088c0,0-0.066,0.09-0.061,0.334
						c0.008,0.245-0.061,0.314-0.133,0.404c-0.074,0.086-0.227,0.547-0.229,0.605s-0.086,0.506-0.08,0.539
						c0.006,0.032,0.143,0.48,0.148,0.545c0.004,0.066-0.25,0.432-0.25,0.432s0.004,0.084,0.014,0.175
						c0.012,0.091-0.113,0.385-0.162,0.485c-0.047,0.102-0.072,0.096-0.16,0.252c-0.088,0.16-0.096,0.232-0.123,0.322
						c-0.029,0.09-0.025,0.16-0.039,0.23c-0.016,0.069-0.105,0.346-0.109,0.455s-0.979,0.723-0.979,0.723s-0.236,0.082-0.291-0.223
						c0,0-0.154-0.313-0.42-0.023c0,0-0.514,0.213-0.633,0.344c-0.121,0.133-0.287-0.154-0.686,0.311l-0.379,0.402
						c0,0-0.291,0.573-0.33,0.805s0.215,0.135,0.012,0.521c-0.203,0.389-0.135,0.506-0.209,0.634
						c-0.076,0.127-0.02,0.456-0.113,0.339c-0.094-0.119-0.166-0.257-0.232-0.188s-0.1,0.088-0.027,0.296s0.268,0.065,0.1,0.356
						c-0.168,0.293-0.52,0.883-0.613,0.996c-0.094,0.114-0.25,0.219-0.293,0.115s-0.258-0.246-0.281-0.072
						c-0.023,0.173-0.186,0.37-0.234,0.316c-0.051-0.053-1.535,0.035-1.535,0.035s-0.457,0.903-0.51,0.975
						c-0.053,0.069,0.111,0.196-0.297,0.256c-0.408,0.061-0.592,0.197-0.625,0.24c-0.033,0.046-0.324,0.122-0.346,0.173
						c-0.02,0.051-0.02,0.27-0.029,0.359c-0.008,0.091-0.135,0.202-0.135,0.202l-0.754,0.252c0,0-0.266,0.276-0.061,0.578
						c0.205,0.303,0.904,0.475-0.127,1.203c0,0-0.268,0.096-0.273,0.295s-0.455,0.659-0.75,0.805
						c-0.293,0.146-0.674,0.409-0.76,0.508c-0.088,0.102-0.287,0.581-0.369,0.746c-0.082,0.164-0.08,0.384-0.26,0.584
						c-0.18,0.203-0.369,0.791-0.533,0.941c-0.166,0.15-0.254,0.064-0.268,0.289c-0.012,0.225,0.078,0.271,0.082,0.324
						c0.006,0.053,0.049,0.131-0.01,0.182c-0.061,0.049-0.068,0.082-0.156,0.246c-0.088,0.166-0.193,0.775-0.201,0.809
						c-0.006,0.031,0.168,0.951,0.168,0.951s0.559,0.317,0.373,0.719c0,0,0.139,0.422,0.17,0.508
						c0.029,0.084,0.324,0.355,0.324,0.355l0.033,0.452l-0.65-0.017c0,0-0.705-0.404-0.992-0.252
						c-0.289,0.153-0.512-0.148-0.564-0.098c-0.053,0.049-0.229,0.083-0.18,0.188c0.049,0.105-0.287,0.096-0.354-0.035
						c-0.068-0.131-0.439-0.238-0.484-0.188c-0.047,0.051-0.281-0.143-0.373-0.061s-0.547,0.186-0.732-0.084
						c-0.188-0.27-0.793-0.467-0.879-0.436c-0.084,0.029-0.109-0.429,0.012-0.471c0,0,0.572-1.132,1.451-0.953l0.232-2.449
						c0,0-0.258-0.297-0.506-0.079c-0.252,0.219-0.316,0.269-0.402,0.345c-0.088,0.074-0.273,0.275-0.338,0.332
						c-0.066,0.056-0.404,0.66-0.59,0.596c-0.186-0.062-0.393-0.011-0.422,0.087c-0.027,0.096-0.121,1.144-0.818,0.739l-0.611,0.222
						c0,0-0.537,0.051-0.625-0.229c-0.092-0.28-0.465-0.554-0.629-0.648c-0.166-0.094-0.582-0.209-1.535,0.036
						c0,0-0.879,0.815-1.414,0.562c0,0-1.082,0.249-1.484-0.129s-2.047-0.873-2.143-1.179c0,0,0.031-0.47-0.826-0.452
						c0,0-1.783-0.77-1.809-0.829c-0.023-0.058-0.172-0.307-0.773-0.239c-0.602,0.068-1.283,0.779-1.555,0.771
						c-0.27-0.007-1.891,0.098-2.041-0.027l-0.836,1.099c0,0-0.674,0.357-0.645,0.504c0.027,0.15-1.797,1.36-2.234,1.314
						c0,0-1.014,0.793-1.266,0.104s-1.104-1.848-1.248-1.754c-0.145,0.092-0.705-0.665-0.705-0.665l-0.551,0.321
						c0,0-1.732-1.018-2.012-1.426c-0.279-0.406-0.691-0.908-0.68-1.102c0.012-0.192-0.4-2.678,0.102-3.123
						c0.502-0.443,0.586-0.688,0.504-0.767c0,0,0.092-0.515,0.232-0.478c0,0,0.08-0.404-0.021-0.459c0,0-0.123-0.363-0.633,0.087
						l-3.928-0.167l-6.648-0.39l-0.287-4.776l-1.898-2.314l1.908,0.014l-0.053-2.866c0,0-0.359-0.054-0.375-0.177
						c0,0,0.01-0.624-0.404-1.092l-0.217-0.575c0,0-0.311-1.394-0.117-1.42c0,0,0.6-0.494,0.508-0.612c0,0-0.543-1.213-0.711-1.217
						c-0.166-0.006-1.256-0.453-1.186-0.729c0,0,1.621-1.285,1.992-1.275l0.693-1.8c0,0,0.439-0.974,0.846-1.061
						c0,0,0.52-1.069,0.48-1.263c-0.041-0.195,0.334-1.637,1.217-1.663l0.615-0.842l-0.74-0.819c0,0,0.207-0.445-0.361-0.95
						c0,0-0.174-0.938-0.361-0.956c0,0-0.512-0.112-0.422-0.863c0,0-0.295-1.264,1.141-1.954c0,0,0.063-0.592-0.064-0.698
						c0,0-0.369-0.655-0.279-1.148c0,0-1.711-0.148-1.709-0.207c0.002-0.058-0.078-0.207-0.145-0.178
						c-0.064,0.031-0.098,0.056-0.162,0.079c-0.064,0.025-0.115,0.224-0.211,0.118c-0.094-0.106-0.135-0.217-0.199-0.187
						c-0.066,0.03-0.121-0.112-0.117-0.189c0.002-0.078-0.215-0.193-0.215-0.193l-0.131-0.14l-6.514-0.159
						c0,0,0.176-1.308,0.326-1.148c0,0,0.119,0.104,0.072-0.72c0,0,0.064-1.168,0.117-1.219c0.053-0.049,0.166-0.406-0.021-0.498
						c-0.186-0.092-0.615-0.756-0.525-0.873c0.088-0.118,0.146-0.375,0.096-0.393c-0.051-0.02-0.17-0.092-0.17-0.092
						s0.066-0.548,0.334-0.901c0.266-0.354,0.225-0.716,0.227-0.819c0.004-0.103-0.211-0.471-0.291-0.644
						c-0.082-0.174-0.162-0.435,0.063-0.446c0.225-0.01,0.305-0.473,0.307-0.523s-0.18-0.418-0.26-0.591
						c-0.08-0.175-0.262-0.56-0.125-0.501c0,0,0.203-0.478-0.193-0.488c0,0-0.148-0.863,0.328-0.695c0,0,0.148-0.427,0.049-0.549
						c0,0,0.08-1.047,0.398-1.365C192.896,96.076,192.298,95.535,192.005,95.438z"/>
				</g>
				<g>
					<g>
						<g>
							<defs>
								<path id="SVGID_178_" d="M321.612,112.135c0-28.605,23.188-51.795,51.791-51.795S425.2,83.529,425.2,112.135
									c0,28.601-23.193,51.791-51.797,51.791S321.612,140.735,321.612,112.135 M288.995,111.896
									c0,59.49,77.723,149.549,77.723,149.549c3.678,4.262,9.695,4.262,13.375,0c0,0,77.721-90.059,77.721-149.549
									c0-47.563-36.844-86.131-84.41-86.131S288.995,64.333,288.995,111.896"/>
							</defs>
							<clipPath id="SVGID_19_">
								<use xlink:href="#SVGID_178_"  overflow="visible"/>
							</clipPath>
							
								<linearGradient id="SVGID_20_" gradientUnits="userSpaceOnUse" x1="-786.5674" y1="-837.0264" x2="-784.5902" y2="-837.0264" gradientTransform="matrix(0 -120.8271 -120.8271 0 -100761.9766 -94773.9922)">
								<stop  offset="0" style="stop-color:#5CA03E"/>
								<stop  offset="0.1398" style="stop-color:#65A43D"/>
								<stop  offset="0.3679" style="stop-color:#7BAC3B"/>
								<stop  offset="0.6557" style="stop-color:#9AB937"/>
								<stop  offset="0.9892" style="stop-color:#C4CF30"/>
								<stop  offset="1" style="stop-color:#C5D030"/>
							</linearGradient>
							<rect x="288.995" y="25.766" clip-path="url(#SVGID_19_)" fill="url(#SVGID_20_)" width="168.818" height="239.941"/>
						</g>
						<g>
							<defs>
								<path id="SVGID_181_" d="M324.853,113.299c0-26.812,21.736-48.551,48.551-48.551s48.553,21.739,48.553,48.551
									c0,26.814-21.738,48.555-48.553,48.555S324.853,140.113,324.853,113.299 M294.274,113.083
									c0,55.763,72.559,139.837,72.559,139.837c3.615,4.186,9.527,4.186,13.143,0c0,0,72.559-84.074,72.559-139.837
									c0-44.591-34.537-80.741-79.131-80.741C328.812,32.342,294.274,68.492,294.274,113.083"/>
							</defs>
							<clipPath id="SVGID_22_">
								<use xlink:href="#SVGID_181_"  overflow="visible"/>
							</clipPath>
							
								<linearGradient id="SVGID_23_" gradientUnits="userSpaceOnUse" x1="-787.1748" y1="-837.5649" x2="-785.1971" y2="-837.5649" gradientTransform="matrix(0 -113.1609 -113.1609 0 -94406.1641 -88821.3359)">
								<stop  offset="0" style="stop-color:#69A53C"/>
								<stop  offset="0.15" style="stop-color:#60A23D"/>
								<stop  offset="1" style="stop-color:#9DBA33"/>
							</linearGradient>
							<rect x="294.274" y="32.342" clip-path="url(#SVGID_22_)" fill="url(#SVGID_23_)" width="158.26" height="224.764"/>
						</g>
						<g opacity="0.75">
							<g>
								<defs>
									<rect id="SVGID_184_" x="288.763" y="25.766" width="169.279" height="84.643"/>
								</defs>
								<clipPath id="SVGID_25_">
									<use xlink:href="#SVGID_184_"  overflow="visible"/>
								</clipPath>
								<g clip-path="url(#SVGID_25_)">
									<defs>
										<path id="SVGID_186_" d="M373.403,58.869c26.367,0,48.094,19.807,51.158,45.35c9.586,1.682,20.541,3.74,33.48,6.189
											c0-46.746-37.895-84.643-84.639-84.643c-46.742,0-84.641,37.896-84.641,84.643c12.932-2.364,23.881-4.375,33.467-6.035
											C325.222,78.756,346.985,58.869,373.403,58.869"/>
									</defs>
									<clipPath id="SVGID_27_">
										<use xlink:href="#SVGID_186_"  overflow="visible"/>
									</clipPath>
									
										<linearGradient id="SVGID_28_" gradientUnits="userSpaceOnUse" x1="-802.126" y1="-851.5186" x2="-800.1489" y2="-851.5186" gradientTransform="matrix(0 -42.8125 -42.8125 0 -36082.2148 -34230.5977)">
										<stop  offset="0" style="stop-color:#3C001A"/>
										<stop  offset="0.0612" style="stop-color:#472D22"/>
										<stop  offset="0.1586" style="stop-color:#574A2B"/>
										<stop  offset="0.2608" style="stop-color:#666431"/>
										<stop  offset="0.3656" style="stop-color:#767E35"/>
										<stop  offset="0.4741" style="stop-color:#849437"/>
										<stop  offset="0.5871" style="stop-color:#90A736"/>
										<stop  offset="0.7067" style="stop-color:#98B335"/>
										<stop  offset="0.8374" style="stop-color:#9CB933"/>
										<stop  offset="1" style="stop-color:#9DBA33"/>
									</linearGradient>
									<rect x="288.763" y="25.766" clip-path="url(#SVGID_27_)" fill="url(#SVGID_28_)" width="169.279" height="84.643"/>
								</g>
							</g>
						</g>
						<g>
							<defs>
								<path id="SVGID_189_" d="M324.853,113.299c0-26.812,21.736-48.551,48.551-48.551s48.553,21.739,48.553,48.551
									c0,26.814-21.738,48.555-48.553,48.555S324.853,140.113,324.853,113.299 M317.858,113.299
									c0,30.676,24.869,55.547,55.545,55.547c30.678,0,55.545-24.871,55.545-55.547c0-30.672-24.867-55.541-55.545-55.541
									C342.728,57.758,317.858,82.627,317.858,113.299"/>
							</defs>
							<clipPath id="SVGID_30_">
								<use xlink:href="#SVGID_189_"  overflow="visible"/>
							</clipPath>
							
								<linearGradient id="SVGID_31_" gradientUnits="userSpaceOnUse" x1="-796.668" y1="-846.1748" x2="-794.6909" y2="-846.1748" gradientTransform="matrix(0 -56.1904 -56.1904 0 -47173.5391 -44596.2734)">
								<stop  offset="0" style="stop-color:#9DBA33"/>
								<stop  offset="1" style="stop-color:#60A23D"/>
							</linearGradient>
							<rect x="317.858" y="57.758" clip-path="url(#SVGID_30_)" fill="url(#SVGID_31_)" width="111.09" height="111.088"/>
						</g>
						<g>
							<defs>
								<path id="SVGID_192_" d="M324.853,113.299c0,26.814,21.736,48.555,48.551,48.555s48.553-21.74,48.553-48.555
									c0-26.812-21.738-48.551-48.553-48.551S324.853,86.487,324.853,113.299"/>
							</defs>
							<clipPath id="SVGID_33_">
								<use xlink:href="#SVGID_192_"  overflow="visible"/>
							</clipPath>
							
								<radialGradient id="SVGID_34_" cx="-754.1235" cy="-854.4063" r="1.9781" gradientTransform="matrix(41.9278 0 0 -41.9278 31993.4336 -35734.9375)" gradientUnits="userSpaceOnUse">
								<stop  offset="0" style="stop-color:#E4E02B"/>
								<stop  offset="1" style="stop-color:#4B9C40"/>
							</radialGradient>
							<rect x="324.853" y="64.748" clip-path="url(#SVGID_33_)" fill="url(#SVGID_34_)" width="97.104" height="97.105"/>
						</g>
					</g>
					<path opacity="0.3" fill="#336535" d="M339.011,86.014l19.295,0.51c0,0,0.592-0.589,0.711-0.534c0,0-0.148-0.21-0.512-0.116
						c0,0-0.244,0.113-0.152-0.158c0,0,0.182-0.34,0.236-0.423c0.053-0.085-0.18-0.401-0.041-0.483c0,0-0.074-0.414,0.031-0.447
						c0,0,0.283-0.317,0.309-0.627c0,0,0.123-0.152,0.191-0.133c0,0-0.016-0.705,0.027-1.047c0,0,0.229-0.184,0.252-0.372
						c0,0-0.473-1.011-0.469-1.131c0,0-0.281-0.47,0.137-0.615c0,0,0.33-0.146,0.391-0.47c0,0,0.359-0.627,0.496-0.588
						c0,0,0.049-1.168,0.508-1.672c0,0,0.818,0.934,1.037,1.764l0.322,0.215c0,0,0.246,1.675,0.297,1.813
						c0.045,0.139,0.467,0.515,0.529,0.704c0.063,0.188,0.076,0.377,0.143,0.433c0.066,0.051,0.203,0.106,0.203,0.106
						s0.375,0.113,0.158,0.589c0,0-0.09,0.103-0.111,0.256c0,0,0.008,0.325-0.027,0.395l-0.078,0.342l0.166,0.227l0.072,0.313
						c0,0,0.125,0.14-0.01,0.257l0.055,0.189c0,0,0.092,0.468,0.211,0.487l-0.014,0.533l0.551-0.02
						c0.068,0.054,0.479,0.082,0.51,0.221c0.031,0.137-0.012,0.445-0.012,0.445s0.342,0.061,0.494,0.15s0.498,0.082,0.615,0.119
						c0.119,0.039,0.912,0.645,1.105,1.113c0,0-0.15,0.494,0.15,0.829c0,0,1.049-0.041,1.164,0.15s0.184,0.228,0.336,0.954
						c0,0,0.314-0.18,0.451-0.178c0.139,0.004,38.883,3.9,38.883,3.9l0.174,0.005c0,0-0.244,0.265-0.262,0.38
						c0,0-0.102,0.216-0.131,0.378c-0.031,0.159-0.061,0.292-0.146,0.375s-0.236,0.149-0.33,0.287
						c-0.094,0.14-0.213,0.233-0.221,0.324c-0.01,0.091-0.049,0.128,0.025,0.233c0,0-0.039,0.469-0.119,0.627
						c-0.082,0.16-0.166,0.453-0.174,0.486c-0.008,0.031-0.211,0.162-0.266,0.27s-0.012,0.25-0.076,0.391
						c-0.061,0.14-0.184,0.139-0.197,0.207c-0.016,0.07-0.074,0.373-0.074,0.373s-0.014,0.251-0.059,0.262
						c-0.045,0.012-0.477,0.201-0.479,0.291c0,0,0.08,0.123,0.129,0.235s0.182,0.166,0.107,0.312
						c-0.074,0.147-0.318,0.424-0.336,0.508c0,0,0.104,0.235,0.135,0.256c0.033,0.021-0.049,0.178-0.082,0.197
						c-0.031,0.018-0.084,0.022-0.105,0.111c-0.021,0.09,0,0.041,0.016,0.188c0.014,0.149,0.09,0.448,0.09,0.448
						s0.004,0.091-0.098,0.273c-0.102,0.184-0.246,0.342-0.246,0.342l0.002,0.394c0,0,0.068,0.317-0.393,0.899
						c0,0-0.148,0.336-0.129,0.545c0.02,0.206-0.045,0.699,0.113,0.802l0.326,0.085c0,0-0.018,0.465-0.072,0.545
						c-0.053,0.084-0.223,0.17-0.236,0.196c-0.014,0.022-0.061,0.346,0.02,0.464c0.08,0.117,0.098,0.441,0.098,0.441l0.307,0.149
						l-0.129,0.235c0,0-0.074,0.1,0.008,0.135c0.084,0.035-0.018,0.172-0.076,0.191c0,0-0.115,0.01-0.125,0.106
						c-0.008,0.096-0.02,0.263,0.018,0.315s0.074,0.105,0.082,0.133c0.004,0.024-0.162,0.711-0.074,0.847
						c0.086,0.14,0.197,0.026,0.133,0.308c-0.066,0.281,0.055,0.408,0.055,0.408s0.109,0.459,0.086,0.562
						c-0.021,0.103,0.031,0.06-0.131,0.326c-0.16,0.267-0.258,0.496-0.293,0.618c-0.035,0.121-0.023,0.404-0.023,0.404
						s0.213,0.006,0.256,0.072c0.043,0.063,0.045,0.529,0.072,0.686c0.029,0.154-0.047,0.308,0.115,0.31
						c0.16,0.005,0.125,0.089,0.252,0.149c0.129,0.063,0.316,0.01,0.316,0.01s0.291-0.018,0.027,0.395
						c-0.262,0.41-0.5,0.637-0.5,0.637s0.199,0.049,0.127,0.139c-0.074,0.088-0.205,0.188-0.209,0.284
						c-0.002,0.097,0.078,0.479,0.02,0.776c-0.061,0.294-0.092,0.563-0.273,0.842c-0.182,0.279-0.172,0.396-0.148,0.467
						c0.025,0.071-0.123,0.035-0.199,0.227c-0.076,0.19-0.371,0.152-0.428,0.324s-0.225,0.973-0.305,1.035
						c-0.08,0.064-0.33,0.104-0.33,0.104s-0.053,0.011,0.012,0.219c0.066,0.207,0.102,0.584,0.102,0.584s-0.076,0.434-0.146,0.6
						c-0.066,0.166-0.01,0.414,0.053,0.506c0.061,0.092,0.137,0.358,0.137,0.358s-0.273,0.397-0.518,0.087
						c0,0-0.064,0.09-0.059,0.335s-0.061,0.313-0.135,0.403c-0.072,0.087-0.227,0.547-0.229,0.605s-0.084,0.507-0.078,0.539
						s0.143,0.48,0.146,0.545c0.006,0.066-0.25,0.432-0.25,0.432s0.006,0.084,0.016,0.176c0.012,0.091-0.113,0.385-0.162,0.484
						c-0.047,0.102-0.072,0.096-0.16,0.252c-0.09,0.16-0.098,0.232-0.125,0.321c-0.029,0.091-0.023,0.161-0.039,0.232
						c-0.016,0.069-0.105,0.345-0.109,0.454c-0.002,0.109-0.979,0.723-0.979,0.723s-0.234,0.082-0.291-0.222
						c0,0-0.152-0.313-0.418-0.024c0,0-0.514,0.213-0.635,0.344c-0.119,0.133-0.285-0.154-0.684,0.311l-0.379,0.402
						c0,0-0.293,0.574-0.332,0.805c-0.037,0.232,0.217,0.135,0.014,0.522s-0.137,0.505-0.211,0.633
						c-0.074,0.127-0.02,0.456-0.111,0.339c-0.094-0.119-0.168-0.258-0.234-0.188c-0.066,0.069-0.1,0.088-0.027,0.295
						c0.072,0.209,0.27,0.066,0.1,0.359c-0.168,0.291-0.52,0.882-0.611,0.994c-0.094,0.115-0.252,0.219-0.293,0.115
						c-0.043-0.104-0.26-0.245-0.283-0.072c-0.021,0.173-0.184,0.369-0.232,0.316c-0.051-0.053-1.535,0.035-1.535,0.035
						s-0.457,0.903-0.51,0.975c-0.055,0.07,0.109,0.197-0.297,0.256c-0.408,0.061-0.594,0.197-0.625,0.241
						c-0.033,0.045-0.326,0.122-0.346,0.172c-0.021,0.052-0.021,0.27-0.029,0.36c-0.01,0.09-0.135,0.201-0.135,0.201l-0.754,0.252
						c0,0-0.266,0.277-0.061,0.578c0.205,0.303,0.902,0.475-0.129,1.203c0,0-0.266,0.096-0.271,0.295
						c-0.006,0.2-0.457,0.659-0.752,0.805c-0.291,0.146-0.674,0.409-0.76,0.508c-0.086,0.102-0.285,0.581-0.367,0.746
						s-0.082,0.384-0.26,0.584c-0.18,0.202-0.369,0.791-0.535,0.941c-0.164,0.15-0.252,0.064-0.266,0.289
						c-0.012,0.225,0.076,0.273,0.082,0.325s0.049,0.13-0.012,0.181c-0.059,0.049-0.066,0.082-0.154,0.248
						c-0.088,0.164-0.195,0.773-0.203,0.806c-0.006,0.032,0.17,0.952,0.17,0.952s0.557,0.317,0.373,0.718
						c0,0,0.139,0.424,0.168,0.509c0.029,0.084,0.324,0.355,0.324,0.355l0.035,0.452l-0.652-0.017c0,0-0.703-0.404-0.992-0.252
						c-0.287,0.153-0.512-0.148-0.563-0.097c-0.055,0.048-0.229,0.083-0.182,0.187c0.049,0.105-0.285,0.096-0.354-0.034
						c-0.066-0.132-0.438-0.239-0.484-0.188c-0.047,0.052-0.279-0.143-0.373-0.061c-0.09,0.082-0.545,0.186-0.732-0.084
						c-0.186-0.27-0.793-0.467-0.877-0.436c-0.084,0.029-0.111-0.429,0.012-0.471c0,0,0.572-1.132,1.451-0.953l0.232-2.449
						c0,0-0.258-0.298-0.508-0.079c-0.252,0.22-0.316,0.269-0.402,0.345c-0.086,0.074-0.271,0.275-0.336,0.332
						c-0.066,0.057-0.406,0.66-0.592,0.596c-0.184-0.062-0.393-0.012-0.422,0.086c-0.027,0.096-0.119,1.145-0.816,0.74l-0.613,0.223
						c0,0-0.535,0.05-0.625-0.23c-0.09-0.279-0.463-0.554-0.627-0.648c-0.166-0.094-0.582-0.209-1.537,0.036
						c0,0-0.877,0.814-1.414,0.562c0,0-1.08,0.25-1.482-0.129c-0.402-0.377-2.049-0.872-2.143-1.178c0,0,0.031-0.47-0.828-0.453
						c0,0-1.783-0.769-1.807-0.828c-0.025-0.059-0.172-0.307-0.773-0.24c-0.602,0.068-1.285,0.778-1.555,0.771
						c-0.271-0.007-1.891,0.099-2.043-0.027l-0.834,1.099c0,0-0.674,0.356-0.646,0.504c0.029,0.15-1.795,1.36-2.232,1.314
						c0,0-1.014,0.793-1.266,0.104s-1.105-1.848-1.25-1.755c-0.143,0.093-0.705-0.664-0.705-0.664l-0.549,0.321
						c0,0-1.734-1.018-2.012-1.426c-0.281-0.406-0.691-0.908-0.68-1.102c0.01-0.191-0.4-2.678,0.102-3.123
						c0.502-0.443,0.584-0.688,0.502-0.766c0,0,0.094-0.516,0.232-0.479c0,0,0.082-0.404-0.02-0.457c0,0-0.125-0.365-0.635,0.086
						l-3.926-0.168l-6.648-0.391l-0.287-4.775l-1.898-2.314l1.908,0.014l-0.053-2.865c0,0-0.359-0.054-0.375-0.178
						c0,0,0.01-0.624-0.404-1.092l-0.217-0.574c0,0-0.311-1.394-0.117-1.42c0,0,0.6-0.495,0.506-0.611c0,0-0.541-1.215-0.709-1.219
						c-0.168-0.005-1.258-0.453-1.188-0.729c0,0,1.621-1.285,1.994-1.275l0.691-1.8c0,0,0.441-0.974,0.848-1.06
						c0,0,0.52-1.071,0.479-1.264c-0.041-0.195,0.334-1.636,1.217-1.664l0.617-0.842l-0.74-0.818c0,0,0.207-0.445-0.361-0.95
						c0,0-0.176-0.938-0.361-0.956c0,0-0.514-0.111-0.422-0.863c0,0-0.297-1.264,1.141-1.955c0,0,0.061-0.591-0.066-0.697
						c0,0-0.367-0.654-0.277-1.147c0,0-1.711-0.149-1.709-0.208s-0.078-0.207-0.145-0.177c-0.064,0.03-0.098,0.056-0.162,0.078
						c-0.066,0.026-0.117,0.224-0.211,0.118s-0.135-0.217-0.201-0.187c-0.066,0.031-0.119-0.112-0.117-0.188
						c0.002-0.079-0.215-0.194-0.215-0.194l-0.131-0.14l-6.514-0.159c0,0,0.176-1.306,0.326-1.148c0,0,0.119,0.105,0.072-0.72
						c0,0,0.064-1.168,0.117-1.219c0.053-0.049,0.166-0.406-0.02-0.498c-0.188-0.092-0.617-0.756-0.527-0.873
						s0.146-0.374,0.096-0.393c-0.051-0.021-0.17-0.092-0.17-0.092s0.068-0.547,0.334-0.902c0.268-0.354,0.225-0.716,0.229-0.817
						c0.004-0.104-0.211-0.471-0.293-0.645s-0.16-0.435,0.063-0.446c0.225-0.01,0.305-0.472,0.307-0.523
						c0.002-0.051-0.178-0.418-0.26-0.59c-0.08-0.176-0.26-0.561-0.123-0.502c0,0,0.201-0.477-0.193-0.489
						c0,0-0.15-0.863,0.326-0.694c0,0,0.148-0.426,0.049-0.549c0,0,0.08-1.047,0.398-1.364
						C339.901,86.653,339.304,86.113,339.011,86.014z"/>
				</g>
				<g>
					<g>
						<g>
							<defs>
								<rect id="SVGID_195_" x="226.397" y="43.432" width="158.908" height="79.455"/>
							</defs>
							<clipPath id="SVGID_36_">
								<use xlink:href="#SVGID_195_"  overflow="visible"/>
							</clipPath>
							<g clip-path="url(#SVGID_36_)">
								<defs>
									<path id="SVGID_197_" d="M305.851,74.506c24.752,0,45.148,18.591,48.023,42.57c9,1.576,19.283,3.51,31.432,5.811
										c0-43.881-35.574-79.455-79.455-79.455c-43.879,0-79.453,35.574-79.453,79.455c12.139-2.219,22.416-4.108,31.414-5.666
										C260.618,93.173,281.05,74.506,305.851,74.506"/>
								</defs>
								<clipPath id="SVGID_38_">
									<use xlink:href="#SVGID_197_"  overflow="visible"/>
								</clipPath>
								
									<linearGradient id="SVGID_39_" gradientUnits="userSpaceOnUse" x1="-792.811" y1="-838.9775" x2="-791.8667" y2="-838.9775" gradientTransform="matrix(0 -84.1367 -84.1367 0 -70282.9531 -66581.6172)">
									<stop  offset="0" style="stop-color:#221D1F"/>
									<stop  offset="0.039" style="stop-color:#27262A"/>
									<stop  offset="0.1538" style="stop-color:#323947"/>
									<stop  offset="0.2738" style="stop-color:#3A4A65"/>
									<stop  offset="0.3979" style="stop-color:#405880"/>
									<stop  offset="0.5272" style="stop-color:#456396"/>
									<stop  offset="0.6641" style="stop-color:#486CA6"/>
									<stop  offset="0.8138" style="stop-color:#4A71B0"/>
									<stop  offset="1" style="stop-color:#4A72B2"/>
								</linearGradient>
								<rect x="226.397" y="43.432" clip-path="url(#SVGID_38_)" fill="url(#SVGID_39_)" width="158.908" height="79.455"/>
							</g>
						</g>
						<g>
							<defs>
								<path id="SVGID_200_" d="M257.229,122.731c0-26.851,21.77-48.62,48.621-48.62s48.621,21.77,48.621,48.62
									c0,26.853-21.77,48.622-48.621,48.622S257.229,149.584,257.229,122.731 M226.612,122.512
									c0,55.844,72.961,140.385,72.961,140.385c3.451,4.002,9.102,4.002,12.557,0c0,0,72.959-84.541,72.959-140.385
									c0-44.654-34.584-80.854-79.238-80.854S226.612,77.857,226.612,122.512"/>
							</defs>
							<clipPath id="SVGID_41_">
								<use xlink:href="#SVGID_200_"  overflow="visible"/>
							</clipPath>
							
								<linearGradient id="SVGID_42_" gradientUnits="userSpaceOnUse" x1="-782.5972" y1="-832.5859" x2="-781.6531" y2="-832.5859" gradientTransform="matrix(0 -237.4541 -237.4541 0 -197395.0625 -185565.0625)">
								<stop  offset="0" style="stop-color:#4A72B2"/>
								<stop  offset="0.1413" style="stop-color:#466CAC"/>
								<stop  offset="0.3718" style="stop-color:#3B5C99"/>
								<stop  offset="0.6627" style="stop-color:#27447E"/>
								<stop  offset="1" style="stop-color:#001A5A"/>
							</linearGradient>
							<rect x="226.612" y="41.657" clip-path="url(#SVGID_41_)" fill="url(#SVGID_42_)" width="158.477" height="225.241"/>
						</g>
						<g>
							<defs>
								<path id="SVGID_203_" d="M260.272,124.771c0-25.17,20.406-45.578,45.578-45.578s45.578,20.408,45.578,45.578
									c0,25.173-20.406,45.578-45.578,45.578S260.272,149.944,260.272,124.771 M231.571,124.566
									c0,52.35,68.109,131.268,68.109,131.268c3.395,3.934,8.945,3.934,12.34,0c0,0,68.109-78.918,68.109-131.268
									c0-41.861-32.418-75.796-74.279-75.796C263.991,48.771,231.571,82.705,231.571,124.566"/>
							</defs>
							<clipPath id="SVGID_44_">
								<use xlink:href="#SVGID_203_"  overflow="visible"/>
							</clipPath>
							
								<linearGradient id="SVGID_45_" gradientUnits="userSpaceOnUse" x1="-782.979" y1="-832.8237" x2="-782.0349" y2="-832.8237" gradientTransform="matrix(0 -222.3887 -222.3887 0 -184904.7813 -173866.9531)">
								<stop  offset="0" style="stop-color:#4A72B2"/>
								<stop  offset="0.15" style="stop-color:#002E82"/>
								<stop  offset="1" style="stop-color:#4A72B2"/>
							</linearGradient>
							<rect x="231.571" y="48.771" clip-path="url(#SVGID_44_)" fill="url(#SVGID_45_)" width="148.559" height="210.997"/>
						</g>
						<g>
							<defs>
								<path id="SVGID_206_" d="M260.272,122.887c0-25.17,20.406-45.578,45.578-45.578s45.578,20.408,45.578,45.578
									c0,25.172-20.406,45.577-45.578,45.577S260.272,148.059,260.272,122.887 M253.708,122.887
									c0,28.799,23.346,52.143,52.143,52.143s52.145-23.344,52.145-52.143c0-28.797-23.348-52.142-52.145-52.142
									S253.708,94.09,253.708,122.887"/>
							</defs>
							<radialGradient id="SVGID_47_" cx="305.8516" cy="122.8867" r="52.1431" gradientUnits="userSpaceOnUse">
								<stop  offset="0" style="stop-color:#001A5A"/>
								<stop  offset="1" style="stop-color:#4A72B2"/>
							</radialGradient>
							<use xlink:href="#SVGID_206_"  overflow="visible" fill="url(#SVGID_47_)"/>
							<clipPath id="SVGID_48_">
								<use xlink:href="#SVGID_206_"  overflow="visible"/>
							</clipPath>
							
								<radialGradient id="SVGID_49_" cx="-788.5352" cy="-836.6206" r="0.4722" gradientTransform="matrix(0 -110.4297 -110.4297 0 -92081.9063 -86954.7813)" gradientUnits="userSpaceOnUse">
								<stop  offset="0" style="stop-color:#001A5A"/>
								<stop  offset="1" style="stop-color:#4A72B2"/>
							</radialGradient>
							<rect x="253.708" y="70.745" clip-path="url(#SVGID_48_)" fill="url(#SVGID_49_)" width="104.287" height="104.284"/>
						</g>
						<g>
							<defs>
								<path id="SVGID_210_" d="M260.272,122.887c0,25.172,20.406,45.577,45.578,45.577s45.578-20.405,45.578-45.577
									c0-25.17-20.406-45.578-45.578-45.578S260.272,97.717,260.272,122.887"/>
							</defs>
							<clipPath id="SVGID_51_">
								<use xlink:href="#SVGID_210_"  overflow="visible"/>
							</clipPath>
							
								<radialGradient id="SVGID_52_" cx="-766.9556" cy="-845.1489" r="0.9441" gradientTransform="matrix(82.3975 0 0 -82.3975 63502.332 -69538.6016)" gradientUnits="userSpaceOnUse">
								<stop  offset="0" style="stop-color:#4A72B2"/>
								<stop  offset="1" style="stop-color:#001A5A"/>
							</radialGradient>
							<rect x="260.272" y="77.309" clip-path="url(#SVGID_51_)" fill="url(#SVGID_52_)" width="91.156" height="91.155"/>
						</g>
					</g>
					<path opacity="0.3" fill="#76AADB" d="M271.458,98.492l19.295,0.51c0,0,0.592-0.59,0.711-0.535c0,0-0.148-0.21-0.512-0.116
						c0,0-0.244,0.114-0.152-0.159c0,0,0.182-0.34,0.236-0.422c0.053-0.086-0.18-0.4-0.039-0.484c0,0-0.076-0.414,0.029-0.446
						c0,0,0.283-0.317,0.309-0.628c0,0,0.123-0.151,0.191-0.132c0,0-0.016-0.704,0.027-1.047c0,0,0.229-0.183,0.252-0.372
						c0,0-0.473-1.01-0.469-1.131c0,0-0.281-0.47,0.137-0.615c0,0,0.33-0.146,0.391-0.47c0,0,0.359-0.626,0.496-0.589
						c0,0,0.049-1.168,0.508-1.672c0,0,0.818,0.934,1.037,1.765l0.322,0.216c0,0,0.246,1.674,0.297,1.813
						c0.045,0.138,0.467,0.514,0.529,0.703c0.063,0.188,0.076,0.377,0.143,0.433c0.068,0.052,0.203,0.106,0.203,0.106
						s0.375,0.113,0.158,0.59c0,0-0.09,0.102-0.111,0.256c0,0,0.01,0.324-0.027,0.393l-0.078,0.343l0.166,0.227l0.072,0.312
						c0,0,0.125,0.141-0.008,0.258l0.053,0.189c0,0,0.092,0.469,0.211,0.488l-0.014,0.531l0.551-0.02
						c0.068,0.055,0.479,0.083,0.51,0.221c0.031,0.137-0.012,0.445-0.012,0.445s0.342,0.062,0.494,0.15
						c0.152,0.091,0.498,0.082,0.615,0.12c0.119,0.038,0.912,0.645,1.105,1.112c0,0-0.15,0.496,0.15,0.83
						c0,0,1.049-0.041,1.164,0.15s0.184,0.228,0.336,0.955c0,0,0.314-0.182,0.451-0.179c0.139,0.003,38.883,3.899,38.883,3.899
						l0.174,0.006c0,0-0.244,0.264-0.262,0.38c0,0-0.102,0.216-0.131,0.378c-0.031,0.158-0.061,0.293-0.146,0.375
						c-0.086,0.083-0.236,0.148-0.33,0.287c-0.094,0.14-0.213,0.234-0.221,0.324c-0.01,0.09-0.049,0.127,0.025,0.232
						c0,0-0.039,0.471-0.117,0.628c-0.084,0.161-0.168,0.453-0.176,0.485s-0.211,0.162-0.266,0.271
						c-0.055,0.106-0.012,0.25-0.076,0.389c-0.061,0.141-0.184,0.139-0.197,0.208c-0.014,0.071-0.074,0.372-0.074,0.372
						s-0.014,0.252-0.059,0.263c-0.045,0.013-0.477,0.201-0.479,0.29c0,0,0.08,0.125,0.129,0.236s0.182,0.166,0.107,0.313
						s-0.318,0.424-0.336,0.506c0,0,0.104,0.236,0.135,0.257c0.033,0.021-0.049,0.179-0.082,0.196
						c-0.031,0.02-0.084,0.023-0.105,0.113s0,0.039,0.016,0.188c0.014,0.148,0.09,0.449,0.09,0.449s0.004,0.09-0.098,0.272
						c-0.102,0.185-0.246,0.342-0.246,0.342l0.002,0.394c0,0,0.068,0.317-0.393,0.898c0,0-0.148,0.338-0.129,0.545
						c0.021,0.207-0.045,0.701,0.113,0.803l0.326,0.085c0,0-0.018,0.464-0.072,0.545c-0.053,0.085-0.223,0.169-0.236,0.196
						c-0.014,0.023-0.061,0.346,0.02,0.463c0.08,0.118,0.098,0.443,0.098,0.443l0.307,0.148l-0.129,0.234
						c0,0-0.074,0.101,0.008,0.136c0.084,0.034-0.018,0.172-0.076,0.19c0,0-0.115,0.011-0.125,0.107
						c-0.008,0.096-0.02,0.264,0.018,0.315c0.039,0.054,0.074,0.104,0.082,0.134c0.006,0.023-0.162,0.709-0.074,0.846
						c0.086,0.139,0.197,0.025,0.133,0.308c-0.066,0.28,0.055,0.407,0.055,0.407s0.109,0.461,0.086,0.563
						c-0.021,0.103,0.031,0.061-0.131,0.326c-0.16,0.266-0.258,0.496-0.293,0.619c-0.035,0.12-0.023,0.403-0.023,0.403
						s0.213,0.007,0.256,0.073c0.043,0.063,0.045,0.527,0.072,0.684c0.029,0.155-0.047,0.309,0.115,0.311
						c0.16,0.006,0.125,0.088,0.252,0.15c0.129,0.062,0.316,0.01,0.316,0.01s0.291-0.02,0.027,0.393
						c-0.262,0.412-0.498,0.638-0.498,0.638s0.197,0.05,0.125,0.138c-0.074,0.088-0.205,0.189-0.209,0.285
						c-0.002,0.098,0.078,0.48,0.02,0.776c-0.061,0.294-0.092,0.563-0.273,0.842c-0.182,0.279-0.172,0.396-0.148,0.468
						c0.025,0.07-0.123,0.033-0.199,0.227c-0.076,0.189-0.371,0.151-0.428,0.323s-0.225,0.974-0.305,1.035
						c-0.078,0.063-0.33,0.103-0.33,0.103s-0.053,0.012,0.012,0.221c0.066,0.205,0.102,0.582,0.102,0.582s-0.076,0.435-0.146,0.601
						c-0.066,0.167-0.01,0.413,0.053,0.505c0.061,0.092,0.137,0.359,0.137,0.359s-0.273,0.396-0.518,0.086
						c0,0-0.064,0.092-0.059,0.336s-0.061,0.313-0.135,0.402c-0.072,0.088-0.227,0.549-0.229,0.607c0,0.057-0.084,0.506-0.078,0.539
						c0.006,0.031,0.143,0.479,0.146,0.545c0.006,0.064-0.25,0.432-0.25,0.432s0.006,0.083,0.016,0.174
						c0.012,0.092-0.113,0.385-0.162,0.486c-0.047,0.101-0.072,0.096-0.16,0.252c-0.088,0.16-0.098,0.231-0.125,0.32
						c-0.029,0.09-0.023,0.161-0.039,0.232c-0.016,0.068-0.105,0.345-0.109,0.453c-0.002,0.11-0.979,0.724-0.979,0.724
						s-0.234,0.083-0.291-0.222c0,0-0.152-0.313-0.418-0.025c0,0-0.514,0.213-0.635,0.345c-0.119,0.133-0.285-0.154-0.684,0.312
						l-0.379,0.4c0,0-0.293,0.574-0.332,0.805c-0.037,0.232,0.217,0.135,0.014,0.523s-0.137,0.506-0.211,0.633
						s-0.02,0.457-0.111,0.339c-0.094-0.119-0.168-0.257-0.234-0.188c-0.066,0.07-0.1,0.089-0.027,0.297s0.27,0.064,0.1,0.357
						c-0.168,0.291-0.518,0.883-0.611,0.996s-0.252,0.219-0.293,0.113c-0.043-0.103-0.26-0.244-0.283-0.071
						c-0.021,0.173-0.184,0.37-0.232,0.316c-0.051-0.052-1.535,0.036-1.535,0.036s-0.457,0.902-0.51,0.973
						c-0.055,0.07,0.109,0.197-0.297,0.257c-0.408,0.06-0.592,0.196-0.625,0.241s-0.326,0.121-0.346,0.172
						c-0.021,0.051-0.021,0.27-0.029,0.359c-0.01,0.091-0.135,0.203-0.135,0.203l-0.754,0.251c0,0-0.266,0.276-0.061,0.578
						c0.205,0.303,0.902,0.476-0.129,1.204c0,0-0.266,0.096-0.271,0.293c-0.006,0.201-0.457,0.66-0.752,0.805
						c-0.291,0.146-0.674,0.41-0.76,0.51c-0.086,0.101-0.285,0.58-0.367,0.745s-0.082,0.384-0.26,0.584
						c-0.18,0.202-0.369,0.79-0.535,0.941c-0.164,0.15-0.252,0.064-0.266,0.29c-0.012,0.225,0.076,0.271,0.082,0.324
						s0.049,0.13-0.012,0.181c-0.059,0.049-0.066,0.083-0.154,0.247c-0.088,0.165-0.195,0.773-0.203,0.807
						c-0.006,0.031,0.17,0.952,0.17,0.952s0.557,0.317,0.373,0.718c0,0,0.139,0.424,0.168,0.509
						c0.029,0.084,0.324,0.355,0.324,0.355l0.035,0.452l-0.65-0.018c0,0-0.705-0.404-0.994-0.252
						c-0.287,0.154-0.512-0.147-0.563-0.096c-0.055,0.048-0.229,0.082-0.182,0.186c0.051,0.107-0.285,0.098-0.354-0.033
						c-0.066-0.133-0.438-0.239-0.484-0.188c-0.047,0.051-0.279-0.143-0.373-0.062c-0.09,0.081-0.545,0.185-0.732-0.085
						c-0.186-0.27-0.793-0.465-0.877-0.435c-0.084,0.029-0.111-0.429,0.012-0.471c0,0,0.572-1.132,1.451-0.954l0.232-2.448
						c0,0-0.258-0.298-0.508-0.079c-0.252,0.219-0.316,0.269-0.402,0.345c-0.086,0.075-0.271,0.274-0.336,0.331
						c-0.066,0.057-0.406,0.662-0.59,0.598c-0.186-0.063-0.395-0.012-0.422,0.086c-0.029,0.096-0.121,1.144-0.818,0.738
						l-0.613,0.223c0,0-0.535,0.051-0.625-0.229s-0.463-0.554-0.627-0.649c-0.166-0.094-0.582-0.209-1.537,0.037
						c0,0-0.877,0.814-1.414,0.561c0,0-1.08,0.25-1.482-0.128s-2.049-0.872-2.143-1.179c0,0,0.031-0.469-0.828-0.452
						c0,0-1.783-0.769-1.807-0.829c-0.025-0.059-0.172-0.307-0.773-0.24c-0.602,0.068-1.285,0.779-1.555,0.771
						c-0.271-0.006-1.891,0.098-2.043-0.027l-0.834,1.099c0,0-0.674,0.356-0.646,0.505c0.029,0.149-1.795,1.359-2.232,1.314
						c0,0-1.014,0.792-1.266,0.103c-0.252-0.69-1.105-1.847-1.25-1.755c-0.143,0.093-0.705-0.664-0.705-0.664l-0.549,0.322
						c0,0-1.732-1.02-2.012-1.427c-0.281-0.407-0.691-0.908-0.68-1.102c0.01-0.192-0.4-2.679,0.102-3.123
						c0.502-0.443,0.584-0.688,0.502-0.767c0,0,0.094-0.516,0.232-0.479c0,0,0.082-0.404-0.02-0.457c0,0-0.125-0.365-0.635,0.086
						l-3.926-0.168l-6.648-0.389l-0.287-4.777l-1.898-2.313l1.908,0.013l-0.053-2.865c0,0-0.359-0.053-0.375-0.176
						c0,0,0.01-0.625-0.404-1.094l-0.217-0.574c0,0-0.311-1.393-0.117-1.42c0,0,0.6-0.494,0.506-0.611c0,0-0.541-1.214-0.709-1.219
						c-0.168-0.004-1.258-0.453-1.186-0.728c0,0,1.619-1.285,1.992-1.276l0.693-1.799c0,0,0.439-0.975,0.846-1.061
						c0,0,0.52-1.07,0.479-1.263c-0.039-0.196,0.334-1.636,1.217-1.663l0.617-0.842l-0.74-0.819c0,0,0.207-0.445-0.361-0.95
						c0,0-0.176-0.938-0.361-0.957c0,0-0.514-0.111-0.422-0.861c0,0-0.297-1.264,1.141-1.955c0,0,0.061-0.592-0.066-0.698
						c0,0-0.367-0.655-0.277-1.147c0,0-1.711-0.148-1.709-0.207s-0.078-0.208-0.145-0.178c-0.064,0.03-0.098,0.055-0.162,0.078
						c-0.066,0.025-0.117,0.223-0.211,0.119c-0.094-0.107-0.135-0.219-0.201-0.188c-0.064,0.031-0.119-0.113-0.117-0.189
						c0.002-0.078-0.215-0.193-0.215-0.193l-0.131-0.139l-6.512-0.16c0,0,0.176-1.307,0.326-1.148c0,0,0.119,0.105,0.072-0.72
						c0,0,0.064-1.169,0.115-1.219c0.055-0.049,0.166-0.407-0.02-0.498s-0.617-0.755-0.527-0.873s0.148-0.374,0.096-0.393
						c-0.051-0.021-0.17-0.091-0.17-0.091s0.068-0.549,0.334-0.902c0.268-0.355,0.225-0.717,0.229-0.818
						c0.004-0.104-0.211-0.471-0.293-0.645c-0.08-0.174-0.16-0.435,0.063-0.445c0.225-0.012,0.305-0.473,0.307-0.524
						s-0.178-0.419-0.258-0.591c-0.082-0.175-0.262-0.56-0.125-0.501c0,0,0.201-0.478-0.193-0.489c0,0-0.15-0.863,0.328-0.695
						c0,0,0.148-0.426,0.047-0.549c0,0,0.082-1.047,0.398-1.363C272.349,99.131,271.751,98.59,271.458,98.492z"/>
				</g>
			</g>
		</g>
	</g>
	<g>
		<text transform="matrix(1 0 0 1 82.1035 370.5068)" fill="#FFFFFF" font-family="'NexaLight'" font-size="19.6197">CULTURA, TURISMO, CIÊNCIA E TECNOLOGIA </text>
		<text transform="matrix(1 0 0 1 398.3369 345.543)" fill="#D8D9DD" font-family="'NexaBold'" font-size="88.1049">MT</text>
		<text transform="matrix(1 0 0 1 76.1611 344.9258)" fill="#FFFFFF" font-family="'NexaLight'" font-size="88.1049">MAPAS</text>
	</g>
</g>
</svg>
